<?xml version="1.0" encoding="UTF-8" standalone="no"?>
<!-- Created with Inkscape (http://www.inkscape.org/) -->

<svg
   width="500mm"
   height="300mm"
   viewBox="0 0 500 300"
   version="1.1"
   id="svg2179"
   inkscape:version="1.2.2 (732a01da63, 2022-12-09)"
   sodipodi:docname="litter-picker-layout.svg"
   inkscape:export-filename="..\..\..\..\litter-picker-layout.svg"
   inkscape:export-xdpi="96"
   inkscape:export-ydpi="96"
   xmlns:inkscape="http://www.inkscape.org/namespaces/inkscape"
   xmlns:sodipodi="http://sodipodi.sourceforge.net/DTD/sodipodi-0.dtd"
   xmlns="http://www.w3.org/2000/svg"
   xmlns:svg="http://www.w3.org/2000/svg">
  <sodipodi:namedview
     id="namedview2181"
     pagecolor="#ffffff"
     bordercolor="#000000"
     borderopacity="0.25"
     inkscape:showpageshadow="2"
     inkscape:pageopacity="0.0"
     inkscape:pagecheckerboard="0"
     inkscape:deskcolor="#d1d1d1"
     inkscape:document-units="mm"
     showgrid="false"
     inkscape:zoom="0.457453"
     inkscape:cx="484.20275"
     inkscape:cy="391.29703"
     inkscape:window-width="2560"
     inkscape:window-height="1334"
     inkscape:window-x="-11"
     inkscape:window-y="-11"
     inkscape:window-maximized="1"
     inkscape:current-layer="layer1"
     showguides="true">
    <sodipodi:guide
       position="160.31976,175.67038"
       orientation="0,-1"
       id="guide12209"
       inkscape:locked="false" />
  </sodipodi:namedview>
  <defs
     id="defs2176" />
  <g
     inkscape:label="Layer 1"
     inkscape:groupmode="layer"
     id="layer1"
     style="display:inline">
    <g
       id="g12701"
       transform="rotate(-0.53668218,-2591.5235,-25285.986)"
       inkscape:transform-center-x="5.1707386"
       inkscape:transform-center-y="-6.9851804"
       style="display:inline">
      <path
         id="path12693"
         style="display:inline;fill:#00ff00;fill-opacity:0.599129;stroke-width:4.88181;stroke-dasharray:19.5271, 19.5271"
         inkscape:transform-center-x="5.0452872"
         inkscape:transform-center-y="-6.6600999"
         d="m 191.47352,56.104612 c -23.89216,-0.128142 -44.58816,7.755646 -54.45639,19.305062 l -5.2e-4,-4e-6 c -0.0387,0.04528 -0.0771,0.09098 -0.11549,0.136383 -3.84322,4.548329 -6.01134,9.659788 -6.04081,15.070804 l 4.3e-4,0.0098 1.29603,0.008 2.64553,-0.01036 c 0.0855,-15.939437 26.20214,-21.416834 56.60069,-21.253418 2.28359,0.01229 -4.98479,5.215221 -5.581,19.884847 -0.0395,0.286984 -0.0606,0.576385 -0.0634,0.866058 1e-4,0.206012 0.01,0.411625 0.0278,0.616787 -7.5e-4,0.05867 -0.003,0.114712 -0.003,0.173616 0.002,-3.71e-4 0.0185,-2.01e-4 0.0217,2.03e-4 0.16717,1.507669 0.81655,2.856075 1.78465,3.897787 0.002,0.0018 0.003,0.0034 0.005,0.0052 0.9676,1.051562 2.26826,1.80672 3.76643,2.087959 0.0348,0.0035 0.0699,0.0069 0.10481,0.0098 l 38.90976,20.762574 0.007,-0.0113 c 0.70378,0.45238 1.48879,0.764 2.31127,0.91725 3.50964,0.6513 6.88313,-1.66531 7.53516,-5.17481 0.55086,-2.96195 -1.01732,-5.91151 -3.78087,-7.11126 l 0.004,-0.01 -35.95866,-19.187667 c -0.22661,-0.162867 -0.47089,-0.33098 -0.7307,-0.500893 0.0128,-0.286621 0.0238,-0.577877 0.0294,-0.880846 2.68864,-18.376317 17.00021,-29.475589 -8.31885,-29.611783 z" />
      <circle
         style="vector-effect:non-scaling-stroke;fill:#000000;fill-opacity:0.441237;stroke-width:0.268992;-inkscape-stroke:hairline"
         id="circle12699"
         cx="199.05901"
         cy="64.961922"
         r="3.05" />
      <circle
         style="display:inline;vector-effect:non-scaling-stroke;fill:#000000;fill-opacity:0.441237;stroke-width:0.268992;-inkscape-stroke:hairline"
         id="circle1455"
         cx="248.85088"
         cy="68.156425"
         r="3.05"
         transform="rotate(10.2787)" />
      <circle
         style="display:inline;vector-effect:non-scaling-stroke;fill:#000000;fill-opacity:0.441237;stroke-width:0.268992;-inkscape-stroke:hairline"
         id="circle1453"
         cx="192.453"
         cy="90.314926"
         r="3.05"
         transform="rotate(10.2787,192.46144,90.307519)" />
    </g>
    <g
       id="g13322"
       transform="rotate(-0.53668218,867.20259,-6811.0297)"
       inkscape:transform-center-x="5.1707386"
       inkscape:transform-center-y="-6.9851804"
       style="display:inline">
      <path
         id="path13314"
         style="display:inline;fill:#00ff00;fill-opacity:0.599129;stroke-width:4.88181;stroke-dasharray:19.5271, 19.5271"
         inkscape:transform-center-x="5.0452872"
         inkscape:transform-center-y="-6.6600999"
         d="m 245.74752,25.529237 c -23.89216,-0.128142 -44.58816,7.755646 -54.45639,19.305062 l -5.2e-4,-4e-6 c -0.0387,0.04528 -0.0771,0.09098 -0.11549,0.136383 -3.84322,4.548329 -6.01134,9.659788 -6.04081,15.070804 l 4.3e-4,0.0098 1.29603,0.008 2.64553,-0.01036 c 0.0855,-15.939437 26.20214,-21.416834 56.60069,-21.253418 2.28359,0.01229 -4.98479,5.215221 -5.581,19.884847 -0.0395,0.286984 -0.0606,0.576385 -0.0634,0.866058 1e-4,0.206012 0.01,0.411625 0.0278,0.616787 -7.5e-4,0.05867 -0.003,0.114712 -0.003,0.173616 0.002,-3.71e-4 0.0185,-2.01e-4 0.0217,2.03e-4 0.16717,1.507669 0.81655,2.856075 1.78465,3.897787 0.002,0.0018 0.003,0.0034 0.005,0.0052 0.9676,1.051562 2.26826,1.80672 3.76643,2.087959 0.0348,0.0035 0.0699,0.0069 0.10481,0.0098 l 38.90976,20.762574 0.007,-0.0113 c 0.70378,0.45238 1.48879,0.764 2.31127,0.91725 3.50964,0.6513 6.88313,-1.66531 7.53516,-5.17481 0.55086,-2.96195 -1.01732,-5.91151 -3.78087,-7.11126 l 0.004,-0.01 -35.95866,-19.187667 c -0.22661,-0.162867 -0.47089,-0.33098 -0.7307,-0.500893 0.0128,-0.286621 0.0238,-0.577877 0.0294,-0.880846 2.68864,-18.376317 17.00021,-29.475589 -8.31885,-29.611783 z" />
      <circle
         style="vector-effect:non-scaling-stroke;fill:#000000;fill-opacity:0.441237;stroke-width:0.268992;-inkscape-stroke:hairline"
         id="circle13316"
         cx="253.33301"
         cy="34.386547"
         r="3.05" />
      <circle
         style="display:inline;vector-effect:non-scaling-stroke;fill:#000000;fill-opacity:0.441237;stroke-width:0.268992;-inkscape-stroke:hairline"
         id="circle13318"
         cx="296.7981"
         cy="28.387281"
         r="3.05"
         transform="rotate(10.2787)" />
      <circle
         style="display:inline;vector-effect:non-scaling-stroke;fill:#000000;fill-opacity:0.441237;stroke-width:0.268992;-inkscape-stroke:hairline"
         id="circle13320"
         cx="253.42564"
         cy="14.754343"
         r="3.05"
         transform="rotate(10.2787)" />
    </g>
    <g
       id="g12849"
       transform="translate(-242.79478,50.910398)"
       style="display:inline">
      <path
         id="path12843"
         style="display:inline;fill:#2c89a0;fill-opacity:0.599129;stroke-width:4.59248;stroke-dasharray:18.37, 18.37"
         d="m 284.76246,77.689315 c -3.46707,0 -5.5841,2.584637 -5.5841,5.305102 0,7.135297 -7.02862,16.724915 -4.48401,18.821073 4.91325,5.35193 4.3539,8.26063 12.06533,8.26063 11.36004,0 46.15278,-0.0175 54.78053,0 v -4.02626 -2.11667 h -1.54305 c -1.662,0 -2.99982,-1.33833 -2.99982,-3.00033 V 88.933073 c 0,-1.661998 1.33782,-2.999817 2.99982,-2.999817 h 1.54254 l -0.005,-3.31866 c 0,-2.497727 -0.58127,-4.925281 -7.57319,-4.925281 -8.70365,0 -45.8186,0.08894 -49.1994,0 z"
         sodipodi:nodetypes="cccscccssssccscc" />
      <circle
         style="display:inline;vector-effect:non-scaling-stroke;fill:#000000;fill-opacity:0.441237;stroke-width:0.268992;-inkscape-stroke:hairline"
         id="circle12851"
         cx="284.80099"
         cy="83.311096"
         r="3.05" />
      <circle
         style="display:inline;vector-effect:non-scaling-stroke;fill:#000000;fill-opacity:0.441237;stroke-width:0.268992;-inkscape-stroke:hairline"
         id="circle13745"
         cx="284.62479"
         cy="101.61221"
         r="3.05" />
    </g>
    <g
       id="g12000"
       transform="translate(-121.04502,-44.812095)"
       style="display:inline">
      <path
         id="rect288"
         style="display:inline;fill:#008080;fill-opacity:0.599129;stroke-width:4.59248;stroke-dasharray:18.37, 18.37"
         d="m 289.05574,83.523584 c 0.0177,2.289893 -2.26887,4.219053 -4.27932,3.836459 -0.51689,-0.0376 -26.00627,-1.058154 -27.44638,-1.058152 l -21.88583,3.7e-5 -43.77167,7.2e-5 c -1.74755,3e-6 -3.88757,1.452801 -4.83175,2.743211 -0.95834,1.309763 -1.24427,2.613001 -1.37924,4.893758 0.91815,3.426578 10.28458,21.563021 5.71231,21.563021 -30.39286,0 -56.47394,-5.63066 -56.48544,-21.563021 h -3.94188 c 0.007,19.235991 27.05915,34.828851 60.42732,34.829401 3.6916,2e-5 17.2036,-1.5312 17.2036,-29.185818 0,0 36.18336,0.103 61.6195,0.26665 7.17498,0.04616 7.21852,10.192798 14.97789,10.192798 5.89517,0 53.79099,-0.006 56.56536,0 v -3.99214 -2.11667 l -34.29744,-1.9e-4 c -1.662,-1e-5 -2.99982,-1.33814 -2.99982,-3.00014 V 88.732909 c 0,-1.661999 1.33782,-2.999913 2.99982,-2.999909 l 34.29693,9.2e-5 -0.005,-3.118496 c 0,-2.497727 -0.58127,-4.925281 -7.57319,-4.925281 -8.70365,0 -36.47085,0.08894 -39.85148,0 -3.46689,0 -5.07535,3.113886 -5.05429,5.834269 z"
         sodipodi:nodetypes="scccsscsccscsscccssssccscs" />
      <circle
         style="display:inline;vector-effect:non-scaling-stroke;fill:#000000;fill-opacity:0.441237;stroke-width:0.268992;-inkscape-stroke:hairline"
         id="circle11264"
         cx="192.453"
         cy="93.151001"
         r="3.05" />
      <circle
         style="display:inline;vector-effect:non-scaling-stroke;fill:#000000;fill-opacity:0.441237;stroke-width:0.268992;-inkscape-stroke:hairline"
         id="circle12853"
         cx="284.62479"
         cy="101.61221"
         r="3.05" />
    </g>
    <g
       id="g14001"
       transform="translate(-123.93694,51.488782)"
       style="display:inline">
      <path
         id="path13995"
         style="display:inline;fill:#2c89a0;fill-opacity:0.599129;stroke-width:4.59248;stroke-dasharray:18.37, 18.37"
         d="m 284.76246,77.689315 c -3.46707,0 -5.5841,2.584637 -5.5841,5.305102 0,7.135297 -7.02862,16.724915 -4.48401,18.821073 4.91325,5.35193 4.3539,8.26063 12.06533,8.26063 11.36004,0 46.15278,-0.0175 54.78053,0 v -4.02626 -2.11667 h -1.54305 c -1.662,0 -2.99982,-1.33833 -2.99982,-3.00033 V 88.933073 c 0,-1.661998 1.33782,-2.999817 2.99982,-2.999817 h 1.54254 l -0.005,-3.31866 c 0,-2.497727 -0.58127,-4.925281 -7.57319,-4.925281 -8.70365,0 -45.8186,0.08894 -49.1994,0 z"
         sodipodi:nodetypes="cccscccssssccscc" />
      <circle
         style="display:inline;vector-effect:non-scaling-stroke;fill:#000000;fill-opacity:0.441237;stroke-width:0.268992;-inkscape-stroke:hairline"
         id="circle13997"
         cx="284.80099"
         cy="83.311096"
         r="3.05" />
      <circle
         style="display:inline;vector-effect:non-scaling-stroke;fill:#000000;fill-opacity:0.441237;stroke-width:0.268992;-inkscape-stroke:hairline"
         id="circle13999"
         cx="284.62479"
         cy="101.61221"
         r="3.05" />
    </g>
  </g>
</svg>
