<?xml version="1.0" encoding="UTF-8" standalone="no"?>
<!-- Created with Inkscape (http://www.inkscape.org/) -->

<svg
   width="500mm"
   height="300mm"
   viewBox="0 0 500 300"
   version="1.1"
   id="svg2179"
   inkscape:version="1.2.2 (732a01da63, 2022-12-09)"
   sodipodi:docname="litter-picker-layout.svg"
   xmlns:inkscape="http://www.inkscape.org/namespaces/inkscape"
   xmlns:sodipodi="http://sodipodi.sourceforge.net/DTD/sodipodi-0.dtd"
   xmlns="http://www.w3.org/2000/svg"
   xmlns:svg="http://www.w3.org/2000/svg">
  <sodipodi:namedview
     id="namedview2181"
     pagecolor="#ffffff"
     bordercolor="#000000"
     borderopacity="0.25"
     inkscape:showpageshadow="2"
     inkscape:pageopacity="0.0"
     inkscape:pagecheckerboard="0"
     inkscape:deskcolor="#d1d1d1"
     inkscape:document-units="mm"
     showgrid="false"
     inkscape:zoom="0.457453"
     inkscape:cx="1125.7987"
     inkscape:cy="504.96991"
     inkscape:window-width="2560"
     inkscape:window-height="1334"
     inkscape:window-x="-11"
     inkscape:window-y="-11"
     inkscape:window-maximized="1"
     inkscape:current-layer="layer1" />
  <defs
     id="defs2176" />
  <g
     inkscape:label="Layer 1"
     inkscape:groupmode="layer"
     id="layer1">
    <path
       id="path18345"
       style="display:inline;vector-effect:non-scaling-stroke;fill:#00ff00;fill-opacity:0.599129;stroke:none;stroke-width:1.62012;stroke-dasharray:none;stroke-opacity:1;-inkscape-stroke:hairline"
       d="m 198.35352,75.911088 v 0.01499 a 3,3 0 0 0 -0.17054,-0.0124 3,3 0 0 0 -2.97552,2.655651 c -0.005,1.991264 -0.015,3.681915 -0.015,6.10247 0,6.461419 2.17406,8.938989 8.3075,8.938989 36.3468,0 130.82586,0.0469 137.71304,0 7.06801,0 11.52263,-0.87023 16.75144,-0.87023 9.41278,-5.4e-4 17.04395,7.630132 17.0434,17.042892 -0.004,5.31998 -2.49291,10.33278 -6.72775,13.55266 8.55478,1.03797 14.98852,8.29875 14.98926,16.91628 -0.002,5.1093 -2.2974,9.94794 -6.25233,13.18266 8.1068,1.47124 13.99997,8.5313 13.99863,16.77055 -0.002,4.65424 -1.90799,9.10498 -5.27462,12.31863 8.50354,1.09154 14.87222,8.33056 14.87197,16.90388 -6.1e-4,5.20147 -2.37653,10.11784 -6.45181,13.35009 0,0 0.005,0.33812 0.12351,0.42736 7.82711,5.89876 29.40286,0.0636 29.40286,0.0636 L 384.27912,75.911088 Z m 147.46955,6.056994 c 1.43582,8.8e-5 2.59975,1.164027 2.59984,2.599842 -9e-5,1.435814 -1.16402,2.599753 -2.59984,2.599841 -1.43582,-8.8e-5 -2.59975,-1.164027 -2.59984,-2.599841 9e-5,-1.435815 1.16402,-2.599754 2.59984,-2.599842 z m -144.09508,2.908867 c 1.43582,8.8e-5 2.59975,1.164026 2.59984,2.599841 -9e-5,1.435815 -1.16402,2.599753 -2.59984,2.599841 -1.43602,1.99e-4 -2.60027,-1.163823 -2.60036,-2.599841 9e-5,-1.436018 1.16434,-2.60004 2.60036,-2.599841 z" />
    <circle
       style="display:inline;vector-effect:non-scaling-stroke;fill:#000000;fill-opacity:0.441237;stroke-width:0.264583;-inkscape-stroke:hairline"
       id="path575"
       cx="345.84335"
       cy="84.584724"
       r="3" />
    <circle
       style="display:inline;vector-effect:non-scaling-stroke;fill:#000000;fill-opacity:0.441237;stroke-width:0.264583;-inkscape-stroke:hairline"
       id="circle1445"
       cx="201.74564"
       cy="87.495949"
       r="3" />
    <circle
       style="display:inline;vector-effect:non-scaling-stroke;fill:#000000;fill-opacity:0.441237;stroke-width:0.264583;-inkscape-stroke:hairline"
       id="circle1447"
       cx="276.85352"
       cy="16.887709"
       r="3" />
    <rect
       style="display:inline;vector-effect:non-scaling-stroke;fill:#007f7f;fill-opacity:0.6;stroke-width:0.320986;-inkscape-stroke:hairline"
       id="rect1915"
       width="46"
       height="52.949734"
       x="266.61816"
       y="107.42168" />
    <path
       style="display:inline;fill:#008080;fill-opacity:0.599129;stroke-width:6.12331;stroke-dasharray:24.4933, 24.4933"
       d="m 440.67837,7.777269 c -0.51559,0.0122 -1.03329,0.04807 -1.5534,0.111104 H 70.795525 v 8.330758 h 77.430925 c 1.662,0 2.99982,1.337819 2.99982,2.999817 v 12.000301 c 0,1.661998 -1.33782,2.999817 -2.99982,2.999817 H 70.795525 v 8.102346 c 0,9.659721 10.279834,18.239661 14.900401,18.239661 12.86227,0 44.242004,0.455319 56.573784,0.455319 11.97295,0 142.57904,0.0475 154.37352,0 4.45161,-0.0178 6.94772,-5.76239 6.82439,-8.00002 v -9.525 H 182.4626 c -7.09362,0 -8.71781,-2.41822 -8.71781,-9.08007 0,-3.352551 0.0579,-6.548853 0.0579,-8.814966 h 225.66684 c 0,0 25.79519,89.559514 38.31394,134.201624 2.38393,8.50128 11.14557,13.42713 19.64687,11.04326 l 23.0172,-6.45491 c 8.50131,-2.38391 13.42764,-11.1492 11.04377,-19.65048 0,0 -65.06893,-95.394138 -35.14308,-125.319995 4.60065,-4.600643 -8.56465,-11.799249 -15.66984,-11.638049 z"
       id="path2148"
       sodipodi:nodetypes="ccccssssccsscccssccscccscc" />
    <path
       id="path18628"
       style="display:inline;fill:#00ff00;fill-opacity:0.599129;stroke-width:6.50908;stroke-dasharray:26.0362, 26.0362"
       inkscape:transform-center-x="6.7275808"
       inkscape:transform-center-y="-8.8800995"
       d="m 32.961266,103.38057 c -0.0516,0.0604 -0.102954,0.12114 -0.154105,0.18167 -5.124297,6.06445 -8.01463,12.87951 -8.053918,20.0942 l 2.84e-4,0.0132 1.72787,0.0105 -2.74e-4,-0.0132 c 0.114014,-21.2526 38.46377,-28.555809 78.995217,-28.337919 3.04478,0.0164 -6.646397,6.953279 -7.441357,26.512799 -0.0526,0.38265 -0.0809,0.76825 -0.0846,1.15448 1.4e-4,0.27469 0.0127,0.54922 0.0376,0.82277 -0.001,0.0782 -0.004,0.15267 -0.005,0.2312 0.003,-4.9e-4 0.0247,-1.2e-4 0.029,4.2e-4 0.50949,4.5948 4.378637,8.08019 9.001517,8.1087 0.0465,-0.004 0.093,-0.008 0.13942,-0.0124 l 55.98692,17.98189 0.006,-0.0161 c 1.03094,0.42605 2.13479,0.64792 3.25029,0.65329 4.75939,0.0195 8.63373,-3.82237 8.65419,-8.58175 0.018,-4.01695 -2.74129,-7.51373 -6.65232,-8.43024 l 0.003,-0.0134 -51.73993,-16.61784 C 120.24591,92.621051 139.32821,77.821911 105.56943,77.640321 73.713183,77.469461 46.118452,87.981241 32.960796,103.38048 Z"
       sodipodi:nodetypes="scccccscccccccccccccccs" />
    <circle
       style="display:inline;vector-effect:non-scaling-stroke;fill:#000000;fill-opacity:0.441237;stroke-width:0.264583;-inkscape-stroke:hairline"
       id="circle1451"
       cx="298.39221"
       cy="183.44008"
       r="3" />
    <circle
       style="display:inline;vector-effect:non-scaling-stroke;fill:#000000;fill-opacity:0.441237;stroke-width:0.264583;-inkscape-stroke:hairline"
       id="circle1453"
       cx="201.85312"
       cy="196.627"
       r="3" />
    <circle
       style="display:inline;vector-effect:non-scaling-stroke;fill:#000000;fill-opacity:0.441237;stroke-width:0.264583;-inkscape-stroke:hairline"
       id="circle1455"
       cx="166.57315"
       cy="142.30109"
       r="3" />
    <circle
       style="display:inline;vector-effect:non-scaling-stroke;fill:#000000;fill-opacity:0.441237;stroke-width:0.264583;-inkscape-stroke:hairline"
       id="circle1971"
       cx="114.68401"
       cy="88.449577"
       r="3" />
    <path
       style="display:inline;fill:#008080;fill-opacity:0.599129;stroke-width:6.12331;stroke-dasharray:24.4933, 24.4933"
       d="m 298.45581,177.6652 c -3.01682,-0.0113 -6.03374,2.90442 -6.03374,5.6627 0,2.51912 -2.88892,4.41007 -5.00021,4.41007 h -86.41332 c -2.33007,0 -5.18361,1.93711 -6.44251,3.65766 -1.27779,1.74635 -1.65868,3.48417 -1.83864,6.52518 1.22419,4.56878 13.71295,28.7507 7.61659,28.7507 -40.52385,0 -78.82637,-7.50756 -78.8417,-28.7507 h -1.72806 c 0.01,25.64798 36.07883,46.4383 80.56976,46.43903 4.92213,3e-5 22.93813,-2.0416 22.93813,-38.91442 0,0 16.49393,0.13739 50.40881,0.35553 8.55904,0.055 3.87787,16.15032 19.97087,16.25379 22.69923,0.14594 50.80108,0.22959 80.50362,0.2899 v -8.27598 h -76.88678 c -1.662,0 -2.99982,-1.33782 -2.99982,-2.99981 v -12.0003 c 0,-1.662 1.33782,-2.99982 2.99982,-2.99982 h 76.88678 v -8.33076 h -64.67564 c -2.49473,0 -4.9997,-1.89398 -4.9997,-4.41007 0,-2.77718 -3.01741,-5.65142 -6.03426,-5.6627 z m -96.58686,16.37678 c 1.43581,9e-5 2.59975,1.16403 2.59984,2.59984 -9e-5,1.43581 -1.16403,2.59975 -2.59984,2.59984 -1.43601,2e-4 -2.60027,-1.16383 -2.60036,-2.59984 9e-5,-1.43601 1.16435,-2.60004 2.60036,-2.59984 z"
       id="rect288" />
    <circle
       style="display:inline;vector-effect:non-scaling-stroke;fill:#000000;fill-opacity:0.441237;stroke-width:0.264583;-inkscape-stroke:hairline"
       id="circle9372"
       cx="106.68037"
       cy="123.01078"
       r="3" />
    <path
       id="path9374"
       style="display:inline;fill:#00ff00;fill-opacity:0.599129;stroke-width:6.50908;stroke-dasharray:26.0362, 26.0362"
       inkscape:transform-center-x="6.7275808"
       inkscape:transform-center-y="-8.8800995"
       d="m 14.452989,235.25204 c -0.0516,0.0604 -0.102954,0.12114 -0.154105,0.18167 -5.1242965,6.06445 -8.0146295,12.87951 -8.0539175,20.0942 l 2.84e-4,0.0132 1.72787,0.0105 -2.74e-4,-0.0132 c 0.114014,-21.2526 38.4637695,-28.55581 78.9952165,-28.33792 3.04478,0.0164 -6.646397,6.95328 -7.441357,26.5128 -0.0526,0.38265 -0.0809,0.76825 -0.0846,1.15448 1.4e-4,0.27469 0.0127,0.54922 0.0376,0.82277 -10e-4,0.0782 -0.004,0.15267 -0.005,0.2312 0.003,-4.9e-4 0.0247,-1.2e-4 0.029,4.2e-4 0.50949,4.5948 4.378637,8.08019 9.001517,8.1087 0.0465,-0.004 0.093,-0.008 0.13942,-0.0124 l 55.986917,17.98189 0.006,-0.0161 c 1.03094,0.42605 2.13479,0.64792 3.25029,0.65329 4.75939,0.0195 8.63373,-3.82237 8.65419,-8.58175 0.018,-4.01695 -2.74129,-7.51373 -6.65232,-8.43024 l 0.003,-0.0134 -51.739927,-16.61784 c 3.584837,-24.50179 22.667137,-39.30093 -11.09164,-39.48252 -31.856247,-0.17086 -59.450978,10.34092 -72.608634,25.74016 z"
       sodipodi:nodetypes="scccccscccccccccccccccs" />
    <circle
       style="display:inline;vector-effect:non-scaling-stroke;fill:#000000;fill-opacity:0.441237;stroke-width:0.264583;-inkscape-stroke:hairline"
       id="circle9376"
       cx="148.06488"
       cy="274.17255"
       r="3" />
    <circle
       style="display:inline;vector-effect:non-scaling-stroke;fill:#000000;fill-opacity:0.441237;stroke-width:0.264583;-inkscape-stroke:hairline"
       id="circle9378"
       cx="96.175735"
       cy="220.32104"
       r="3" />
    <circle
       style="display:inline;vector-effect:non-scaling-stroke;fill:#000000;fill-opacity:0.441237;stroke-width:0.264583;-inkscape-stroke:hairline"
       id="circle9380"
       cx="88.172089"
       cy="254.88225"
       r="3" />
  </g>
</svg>
