<?xml version="1.0" encoding="UTF-8" standalone="no"?>
<!-- Created with Inkscape (http://www.inkscape.org/) -->

<svg
   width="1100mm"
   height="300mm"
   viewBox="0 0 1100 300"
   version="1.1"
   id="svg5"
   sodipodi:docname="litter-picker.svg"
   inkscape:version="1.2.2 (732a01da63, 2022-12-09)"
   xmlns:inkscape="http://www.inkscape.org/namespaces/inkscape"
   xmlns:sodipodi="http://sodipodi.sourceforge.net/DTD/sodipodi-0.dtd"
   xmlns="http://www.w3.org/2000/svg"
   xmlns:svg="http://www.w3.org/2000/svg">
  <sodipodi:namedview
     id="namedview7"
     pagecolor="#ffffff"
     bordercolor="#000000"
     borderopacity="0.25"
     inkscape:showpageshadow="2"
     inkscape:pageopacity="0.0"
     inkscape:pagecheckerboard="0"
     inkscape:deskcolor="#d1d1d1"
     inkscape:document-units="mm"
     showgrid="true"
     inkscape:zoom="2.6386986"
     inkscape:cx="840.75537"
     inkscape:cy="386.93317"
     inkscape:window-width="2560"
     inkscape:window-height="1334"
     inkscape:window-x="-11"
     inkscape:window-y="-11"
     inkscape:window-maximized="1"
     inkscape:current-layer="layer1"
     showguides="true" />
  <defs
     id="defs2" />
  <g
     inkscape:groupmode="layer"
     id="layer3"
     inkscape:label="Closed"
     style="display:inline">
    <g
       id="g11406"
       transform="translate(207.43364,-5.8588815)">
      <path
         id="path18345"
         style="display:inline;vector-effect:non-scaling-stroke;fill:#00ff00;fill-opacity:0.599129;stroke:none;stroke-width:1.21509;stroke-dasharray:none;stroke-opacity:1;-inkscape-stroke:hairline"
         d="m 661.89105,96.754374 v 0.01124 c -0.0425,-0.0043 -0.0852,-0.0074 -0.12791,-0.0093 -1.14139,0.0018 -2.10063,0.857889 -2.23164,1.991738 -0.004,1.493448 -0.0112,2.761438 -0.0112,4.576848 0,4.84606 1.63054,6.70424 6.23062,6.70424 27.2601,0 98.1194,0.0352 103.28478,0 5.30101,0 8.64198,-0.65267 12.56358,-0.65267 7.05959,-4.1e-4 12.78297,5.7226 12.78255,12.78217 -0.003,3.98998 -1.86968,7.74958 -5.04581,10.16449 6.41609,0.77848 11.24139,6.22406 11.24195,12.68721 -0.002,3.83198 -1.72305,7.46096 -4.68925,9.887 6.0801,1.10343 10.49998,6.39847 10.49897,12.57791 -10e-4,3.49068 -1.43099,6.82873 -3.95596,9.23897 6.37765,0.81866 11.15416,6.24792 11.15397,12.67791 -4.5e-4,3.9011 -1.78239,7.58838 -4.83885,10.01257 0,0 0.004,0.25359 0.0926,0.32052 5.87033,4.42407 22.05214,0.0477 22.05214,0.0477 L 801.33525,96.754374 Z"
         sodipodi:nodetypes="ccccsscccccccccccccc" />
      <circle
         style="vector-effect:non-scaling-stroke;fill:#000000;fill-opacity:0.441237;stroke-width:0.268992;-inkscape-stroke:hairline"
         id="path575"
         cx="793.258"
         cy="103.30788"
         r="3.05"
         inkscape:label="circle575" />
      <circle
         style="vector-effect:non-scaling-stroke;fill:#000000;fill-opacity:0.441237;stroke-width:0.268992;-inkscape-stroke:hairline"
         id="circle1445"
         cx="665.36102"
         cy="103.07288"
         r="3.05" />
    </g>
    <g
       id="g12701"
       transform="rotate(-0.53668218,455.80284,8511.367)"
       inkscape:transform-center-x="5.1707386"
       inkscape:transform-center-y="-6.9851804">
      <path
         id="path12693"
         style="display:inline;fill:#00ff00;fill-opacity:0.599129;stroke-width:4.88181;stroke-dasharray:19.5271, 19.5271"
         inkscape:transform-center-x="5.0452872"
         inkscape:transform-center-y="-6.6600999"
         d="m 191.47352,56.104612 c -23.89216,-0.128142 -44.58816,7.755646 -54.45639,19.305062 l -5.2e-4,-4e-6 c -0.0387,0.04528 -0.0771,0.09098 -0.11549,0.136383 -3.84322,4.548329 -6.01134,9.659788 -6.04081,15.070804 l 4.3e-4,0.0098 1.29603,0.008 2.64553,-0.01036 c 0.0855,-15.939437 26.20214,-21.416834 56.60069,-21.253418 2.28359,0.01229 -4.98479,5.215221 -5.581,19.884847 -0.0395,0.286984 -0.0606,0.576385 -0.0634,0.866058 1e-4,0.206012 0.01,0.411625 0.0278,0.616787 -7.5e-4,0.05867 -0.003,0.114712 -0.003,0.173616 0.002,-3.71e-4 0.0185,-2.01e-4 0.0217,2.03e-4 0.16717,1.507669 0.81655,2.856075 1.78465,3.897787 0.002,0.0018 0.003,0.0034 0.005,0.0052 0.9676,1.051562 2.26826,1.80672 3.76643,2.087959 0.0348,0.0035 0.0699,0.0069 0.10481,0.0098 l 38.90976,20.762574 0.007,-0.0113 c 0.70378,0.45238 1.48879,0.764 2.31127,0.91725 3.50964,0.6513 6.88313,-1.66531 7.53516,-5.17481 0.55086,-2.96195 -1.01732,-5.91151 -3.78087,-7.11126 l 0.004,-0.01 -35.95866,-19.187667 c -0.22661,-0.162867 -0.47089,-0.33098 -0.7307,-0.500893 0.0128,-0.286621 0.0238,-0.577877 0.0294,-0.880846 2.68864,-18.376317 17.00021,-29.475589 -8.31885,-29.611783 z" />
      <circle
         style="vector-effect:non-scaling-stroke;fill:#000000;fill-opacity:0.441237;stroke-width:0.268992;-inkscape-stroke:hairline"
         id="circle12699"
         cx="199.05901"
         cy="64.961922"
         r="3.05" />
      <circle
         style="display:inline;vector-effect:non-scaling-stroke;fill:#000000;fill-opacity:0.441237;stroke-width:0.268992;-inkscape-stroke:hairline"
         id="circle1455"
         cx="248.85088"
         cy="68.156425"
         r="3.05"
         transform="rotate(10.2787)" />
      <circle
         style="display:inline;vector-effect:non-scaling-stroke;fill:#000000;fill-opacity:0.441237;stroke-width:0.268992;-inkscape-stroke:hairline"
         id="circle1453"
         cx="192.453"
         cy="90.314926"
         r="3.05"
         transform="rotate(10.2787,192.46144,90.307519)" />
    </g>
  </g>
  <g
     inkscape:label="Body"
     inkscape:groupmode="layer"
     id="layer1"
     style="display:inline">
    <g
       id="g11995"
       transform="translate(207.43364)">
      <path
         id="path2148"
         style="display:inline;fill:#008080;fill-opacity:0.599129;stroke-width:4.59248;stroke-dasharray:18.37, 18.37"
         d="m 831.42729,77.607 -276.24722,-3.68e-4 v 6.248198 2.078426 h 50.44136 c 1.662,0 3.00034,1.337819 3.00034,2.999817 v 11.999787 c 0,1.662 -1.33834,3.00033 -3.00034,3.00033 h -50.43155 c 0.10475,10.29446 3.36627,13.99811 10.13169,13.99811 9.64669,0 34.21518,-0.47852 43.46401,-0.47852 8.9797,0 106.93468,0.0356 115.78053,0 3.33871,-0.0134 5.21053,-4.32193 5.11803,-6.00015 v -7.14375 H 643.9302 c -5.32021,0 -6.53861,-1.81353 -6.53861,-6.809922 0,-2.514417 0.0434,-4.911383 0.0434,-6.610966 h 164.25044 c 0,0 19.34667,67.169678 28.73572,100.651218 1.78794,6.37596 8.35905,10.07008 14.73501,8.28218 l 17.26303,-4.84104 c 6.37598,-1.78793 10.0706,-8.36217 8.2827,-14.73812 0,0 -48.80141,-71.54523 -26.35705,-93.989614 3.45049,-3.450478 -6.42388,-8.766516 -11.75277,-8.645616 -0.36847,0 -0.708,0 -1.16478,0 z"
         sodipodi:nodetypes="ccccsssscsssccssccscccscc" />
      <circle
         style="display:inline;vector-effect:non-scaling-stroke;fill:#000000;fill-opacity:0.441237;stroke-width:0.268992;-inkscape-stroke:hairline"
         id="circle1447"
         cx="719.24799"
         cy="84.397003"
         r="3.05" />
    </g>
    <g
       id="g12849"
       transform="translate(-78.86586)"
       style="display:inline">
      <path
         id="path12843"
         style="display:inline;fill:#2c89a0;fill-opacity:0.599129;stroke-width:4.59248;stroke-dasharray:18.37, 18.37"
         d="m 284.76246,77.689315 c -3.46707,0 -5.5841,2.584637 -5.5841,5.305102 0,7.135297 -7.02862,16.724915 -4.48401,18.821073 4.91325,5.35193 4.3539,8.26063 12.06533,8.26063 11.36004,0 26.15263,-0.0175 34.78038,0 v -4.02626 -2.11667 h -1.54305 c -1.662,0 -2.99982,-1.33833 -2.99982,-3.00033 V 88.933073 c 0,-1.661998 1.33782,-2.999817 2.99982,-2.999817 h 1.54254 l -0.005,-3.31866 c 0,-2.497727 -0.58127,-4.925281 -7.57319,-4.925281 -8.70365,0 -25.81845,0.08894 -29.19925,0 z"
         sodipodi:nodetypes="cccscccssssccscc" />
      <circle
         style="display:inline;vector-effect:non-scaling-stroke;fill:#000000;fill-opacity:0.441237;stroke-width:0.268992;-inkscape-stroke:hairline"
         id="circle12847"
         cx="284.80099"
         cy="83.311096"
         r="3.05" />
      <circle
         style="display:inline;vector-effect:non-scaling-stroke;fill:#000000;fill-opacity:0.441237;stroke-width:0.268992;-inkscape-stroke:hairline"
         id="circle12851"
         cx="284.80099"
         cy="83.311096"
         r="3.05" />
    </g>
    <g
       id="g12000"
       transform="translate(-78.86586)"
       style="display:inline">
      <path
         id="rect288"
         style="display:inline;fill:#008080;fill-opacity:0.599129;stroke-width:4.59248;stroke-dasharray:18.37, 18.37"
         d="m 289.05574,83.523584 c 0.0177,2.289893 -2.26887,4.219053 -4.27932,3.836459 -0.51689,-0.0376 -26.00627,-1.058154 -27.44638,-1.058152 l -21.88583,3.7e-5 -43.77167,7.2e-5 c -1.74755,3e-6 -3.88757,1.452801 -4.83175,2.743211 -0.95834,1.309763 -1.24427,2.613001 -1.37924,4.893758 0.91815,3.426578 10.28458,21.563021 5.71231,21.563021 -30.39286,0 -56.47394,-5.63066 -56.48544,-21.563021 h -3.94188 c 0.007,19.235991 27.05915,34.828851 60.42732,34.829401 3.6916,2e-5 17.2036,-1.5312 17.2036,-29.185818 0,0 36.18336,0.103 61.6195,0.26665 7.17498,0.04616 7.21852,10.192798 14.97789,10.192798 5.89517,0 33.79084,-0.006 36.56521,0 v -3.99214 -2.11667 l -24.29722,-1.9e-4 c -1.662,-1e-5 -2.99982,-1.33814 -2.99982,-3.00014 V 88.933073 c 0,-1.661998 1.33782,-2.999817 2.99982,-2.999817 h 24.29671 l -0.005,-3.31866 c 0,-2.497727 -0.58127,-4.925281 -7.57319,-4.925281 -8.70365,0 -16.4707,0.08894 -19.85133,0 -3.46689,0 -5.07535,3.113886 -5.05429,5.834269 z"
         sodipodi:nodetypes="scccsscsccscsscccssssccscs" />
      <circle
         style="display:inline;vector-effect:non-scaling-stroke;fill:#000000;fill-opacity:0.441237;stroke-width:0.268992;-inkscape-stroke:hairline"
         id="circle11264"
         cx="192.453"
         cy="93.151001"
         r="3.05" />
      <circle
         style="display:inline;vector-effect:non-scaling-stroke;fill:#000000;fill-opacity:0.441237;stroke-width:0.268992;-inkscape-stroke:hairline"
         id="circle1451"
         cx="284.80099"
         cy="83.311096"
         r="3.05" />
      <circle
         style="display:inline;vector-effect:non-scaling-stroke;fill:#000000;fill-opacity:0.441237;stroke-width:0.268992;-inkscape-stroke:hairline"
         id="circle12853"
         cx="284.62479"
         cy="101.61221"
         r="3.05" />
    </g>
    <rect
       style="display:inline;vector-effect:non-scaling-stroke;fill:#007f7f;fill-opacity:0.6;stroke-width:0.24074;-inkscape-stroke:hairline"
       id="rect1915"
       width="40.003384"
       height="39.787506"
       x="878.96191"
       y="77.645111" />
  </g>
  <g
     inkscape:groupmode="layer"
     id="layer2"
     inkscape:label="Open"
     style="display:none">
    <g
       id="g11414"
       style="display:inline"
       transform="translate(180.16008,-5.8588815)">
      <path
         id="path11408"
         style="display:inline;vector-effect:non-scaling-stroke;fill:#ff0000;fill-opacity:0.599129;stroke:none;stroke-width:1.21509;stroke-dasharray:none;stroke-opacity:1;-inkscape-stroke:hairline"
         d="m 666.8913,96.754374 v 0.01124 c -0.0425,-0.0043 -0.0852,-0.0074 -0.12791,-0.0093 -1.14139,0.0018 -2.10063,0.857889 -2.23164,1.991738 -0.004,1.493448 -0.0112,2.761438 -0.0112,4.576848 0,4.84606 1.63054,6.70424 6.23062,6.70424 27.2601,0 98.1194,0.0352 103.28478,0 5.30101,0 8.64198,-0.65267 12.56358,-0.65267 7.05959,-4.1e-4 12.78297,5.7226 12.78255,12.78217 -0.003,3.98998 -1.86968,7.74958 -5.04581,10.16449 6.41609,0.77848 11.24139,6.22406 11.24195,12.68721 -0.002,3.83198 -1.72305,7.46096 -4.68925,9.887 6.0801,1.10343 10.49998,6.39847 10.49897,12.57791 -10e-4,3.49068 -1.43099,6.82873 -3.95596,9.23897 6.37765,0.81866 11.15416,6.24792 11.15397,12.67791 -4.5e-4,3.9011 -1.78239,7.58838 -4.83885,10.01257 0,0 0.004,0.25359 0.0926,0.32052 5.87033,4.42407 22.05214,0.0477 22.05214,0.0477 L 806.3355,96.754374 Z"
         sodipodi:nodetypes="ccccsscccccccccccccc" />
      <circle
         style="vector-effect:non-scaling-stroke;fill:#000000;fill-opacity:0.441237;stroke-width:0.268992;-inkscape-stroke:hairline"
         id="circle11410"
         cx="773.25854"
         cy="103.30788"
         r="3.05" />
      <circle
         style="vector-effect:non-scaling-stroke;fill:#000000;fill-opacity:0.441237;stroke-width:0.268992;-inkscape-stroke:hairline"
         id="circle11412"
         cx="670.36157"
         cy="103.07288"
         r="3.05" />
    </g>
    <g
       id="g12767"
       transform="rotate(36.987769,148.82397,-26.146782)"
       inkscape:transform-center-x="10.318276"
       inkscape:transform-center-y="1.3436917"
       style="display:inline;fill:#ff5555">
      <path
         id="path12759"
         style="display:inline;fill:#ff5555;fill-opacity:0.599129;stroke-width:4.88181;stroke-dasharray:19.5271, 19.5271"
         inkscape:transform-center-x="5.0452872"
         inkscape:transform-center-y="-6.6600999"
         d="m 191.47352,56.104612 c -23.89216,-0.128142 -44.58816,7.755646 -54.45639,19.305062 l -5.2e-4,-4e-6 c -0.0387,0.04528 -0.0771,0.09098 -0.11549,0.136383 -3.84322,4.548329 -6.01134,9.659788 -6.04081,15.070804 l 4.3e-4,0.0098 1.29603,0.008 2.64553,-0.01036 c 0.0855,-15.939437 26.20214,-21.416834 56.60069,-21.253418 2.28359,0.01229 -4.98479,5.215221 -5.581,19.884847 -0.0395,0.286984 -0.0606,0.576385 -0.0634,0.866058 1e-4,0.206012 0.01,0.411625 0.0278,0.616787 -7.5e-4,0.05867 -0.003,0.114712 -0.003,0.173616 0.002,-3.71e-4 0.0185,-2.01e-4 0.0217,2.03e-4 0.16717,1.507669 0.81655,2.856075 1.78465,3.897787 0.002,0.0018 0.003,0.0034 0.005,0.0052 0.9676,1.051562 2.26826,1.80672 3.76643,2.087959 0.0348,0.0035 0.0699,0.0069 0.10481,0.0098 l 38.90976,20.762574 0.007,-0.0113 c 0.70378,0.45238 1.48879,0.764 2.31127,0.91725 3.50964,0.6513 6.88313,-1.66531 7.53516,-5.17481 0.55086,-2.96195 -1.01732,-5.91151 -3.78087,-7.11126 l 0.004,-0.01 -35.95866,-19.187667 c -0.22661,-0.162867 -0.47089,-0.33098 -0.7307,-0.500893 0.0128,-0.286621 0.0238,-0.577877 0.0294,-0.880846 2.68864,-18.376317 17.00021,-29.475589 -8.31885,-29.611783 z" />
      <circle
         style="vector-effect:non-scaling-stroke;fill:#333333;fill-opacity:0.441237;stroke-width:0.268992;-inkscape-stroke:hairline"
         id="circle12761"
         cx="199.05901"
         cy="64.961922"
         r="3.05" />
      <circle
         style="display:inline;vector-effect:non-scaling-stroke;fill:#333333;fill-opacity:0.441237;stroke-width:0.268992;-inkscape-stroke:hairline"
         id="circle12763"
         cx="248.85088"
         cy="68.156425"
         r="3.05"
         transform="rotate(10.2787)" />
      <circle
         style="display:inline;vector-effect:non-scaling-stroke;fill:#333333;fill-opacity:0.441237;stroke-width:0.268992;-inkscape-stroke:hairline"
         id="circle12765"
         cx="192.453"
         cy="90.314926"
         r="3.05"
         transform="rotate(10.2787,192.46144,90.307519)" />
    </g>
  </g>
</svg>
