  0
SECTION
  2
HEADER
  9
$ACADVER
  1
AC1014
  9
$HANDSEED
  5
FFFF
  9
$INSUNITS
 70
     4
  9
$MEASUREMENT
 70
     1
  0
ENDSEC
  0
SECTION
  2
TABLES
  0
TABLE
  2
VPORT
  5
8
330
0
100
AcDbSymbolTable
 70
     4
  0
VPORT
  5
2E
330
8
100
AcDbSymbolTableRecord
100
AcDbViewportTableRecord
  2
*ACTIVE
 70
     0
 10
0.0
 20
0.0
 11
1.0
 21
1.0
 12
210.0
 22
148.5
 13
0.0
 23
0.0
 14
10.0
 24
10.0
 15
10.0
 25
10.0
 16
0.0
 26
0.0
 36
1.0
 17
0.0
 27
0.0
 37
0.0
 40
341.0
 41
1.24
 42
50.0
 43
0.0
 44
0.0
 50
0.0
 51
0.0
 71
     0
 72
   100
 73
     1
 74
     3
 75
     0
 76
     0
 77
     0
 78
     0
  0
ENDTAB
  0
TABLE
  2
LTYPE
  5
5
330
0
100
AcDbSymbolTable
 70
     1
  0
LTYPE
  5
14
330
5
100
AcDbSymbolTableRecord
100
AcDbLinetypeTableRecord
  2
BYBLOCK
 70
     0
  3

 72
    65
 73
     0
 40
0.0
  0
LTYPE
  5
15
330
5
100
AcDbSymbolTableRecord
100
AcDbLinetypeTableRecord
  2
BYLAYER
 70
     0
  3

 72
    65
 73
     0
 40
0.0
  0
LTYPE
  5
16
330
5
100
AcDbSymbolTableRecord
100
AcDbLinetypeTableRecord
  2
CONTINUOUS
 70
     0
  3
Solid line
 72
    65
 73
     0
 40
0.0
  0
ENDTAB
  0
TABLE
  2
LAYER
  5
2
100
AcDbSymbolTable
 70
1
  0
LAYER
  5
50
100
AcDbSymbolTableRecord
100
AcDbLayerTableRecord
  2
0
 70
0
  6
CONTINUOUS
  0
ENDTAB
  0
TABLE
  2
STYLE
  5
3
330
0
100
AcDbSymbolTable
 70
     1
  0
STYLE
  5
11
330
3
100
AcDbSymbolTableRecord
100
AcDbTextStyleTableRecord
  2
STANDARD
 70
     0
 40
0.0
 41
1.0
 50
0.0
 71
     0
 42
2.5
  3
txt
  4

  0
ENDTAB
  0
TABLE
  2
VIEW
  5
6
330
0
100
AcDbSymbolTable
 70
     0
  0
ENDTAB
  0
TABLE
  2
UCS
  5
7
330
0
100
AcDbSymbolTable
 70
     0
  0
ENDTAB
  0
TABLE
  2
APPID
  5
9
330
0
100
AcDbSymbolTable
 70
     2
  0
APPID
  5
12
330
9
100
AcDbSymbolTableRecord
100
AcDbRegAppTableRecord
  2
ACAD
 70
     0
  0
ENDTAB
  0
TABLE
  2
DIMSTYLE
  5
A
330
0
100
AcDbSymbolTable
 70
     1
  0
DIMSTYLE
105
27
330
A
100
AcDbSymbolTableRecord
100
AcDbDimStyleTableRecord
  2
ISO-25
 70
     0
  3

  4

  5

  6

  7

 40
1.0
 41
2.5
 42
0.625
 43
3.75
 44
1.25
 45
0.0
 46
0.0
 47
0.0
 48
0.0
140
2.5
141
2.5
142
0.0
143
0.03937007874016
144
1.0
145
0.0
146
1.0
147
0.625
 71
     0
 72
     0
 73
     0
 74
     0
 75
     0
 76
     0
 77
     1
 78
     8
170
     0
171
     3
172
     1
173
     0
174
     0
175
     0
176
     0
177
     0
178
     0
270
     2
271
     2
272
     2
273
     2
274
     3
340
11
275
     0
280
     0
281
     0
282
     0
283
     0
284
     8
285
     0
286
     0
287
     3
288
     0
  0
ENDTAB
  0
TABLE
  2
BLOCK_RECORD
  5
1
330
0
100
AcDbSymbolTable
 70
     1
  0
BLOCK_RECORD
  5
1F
330
1
100
AcDbSymbolTableRecord
100
AcDbBlockTableRecord
  2
*MODEL_SPACE
  0
BLOCK_RECORD
  5
1B
330
1
100
AcDbSymbolTableRecord
100
AcDbBlockTableRecord
  2
*PAPER_SPACE
  0
ENDTAB
  0
ENDSEC
  0
SECTION
  2
BLOCKS
  0
BLOCK
  5
20
330
1F
100
AcDbEntity
  8
0
100
AcDbBlockBegin
  2
*MODEL_SPACE
 70
     0
 10
0.0
 20
0.0
 30
0.0
  3
*MODEL_SPACE
  1

  0
ENDBLK
  5
21
330
1F
100
AcDbEntity
  8
0
100
AcDbBlockEnd
  0
BLOCK
  5
1C
330
1B
100
AcDbEntity
 67
     1
  8
0
100
AcDbBlockBegin
  2
*PAPER_SPACE
  1

  0
ENDBLK
  5
1D
330
1B
100
AcDbEntity
 67
     1
  8
0
100
AcDbBlockEnd
  0
ENDSEC
  0
SECTION
  2
ENTITIES
  0
SPLINE
  5
100
100
AcDbEntity
  8
0
 62
7
100
AcDbSpline
 70
8
 71
3
 72
8
 73
4
 74
0
 40
0
 40
0
 40
0
 40
0
 40
1
 40
1
 40
1
 40
1
 10
172.924370
 20
177.547149
 30
0.0
 10
169.907530
 20
177.558429
 30
0.0
 10
166.890550
 20
174.642729
 30
0.0
 10
166.890550
 20
171.884445
 30
0.0
  0
SPLINE
  5
101
100
AcDbEntity
  8
0
 62
7
100
AcDbSpline
 70
8
 71
3
 72
8
 73
4
 74
0
 40
0
 40
0
 40
0
 40
0
 40
1
 40
1
 40
1
 40
1
 10
166.890550
 20
171.884445
 30
0.0
 10
166.890550
 20
169.365326
 30
0.0
 10
164.001840
 20
167.474379
 30
0.0
 10
161.890550
 20
167.474379
 30
0.0
  0
SPLINE
  5
102
100
AcDbEntity
  8
0
 62
7
100
AcDbSpline
 70
8
 71
3
 72
8
 73
4
 74
0
 40
0
 40
0
 40
0
 40
0
 40
1
 40
1
 40
1
 40
1
 10
85.266673
 20
167.474379
 30
0.0
 10
82.936601
 20
167.474379
 30
0.0
 10
80.083072
 20
165.537273
 30
0.0
 10
78.824172
 20
163.816721
 30
0.0
  0
SPLINE
  5
103
100
AcDbEntity
  8
0
 62
7
100
AcDbSpline
 70
8
 71
3
 72
8
 73
4
 74
0
 40
0
 40
0
 40
0
 40
0
 40
1
 40
1
 40
1
 40
1
 10
78.824172
 20
163.816721
 30
0.0
 10
77.546375
 20
162.070365
 30
0.0
 10
77.165485
 20
160.332556
 30
0.0
 10
76.985525
 20
157.291538
 30
0.0
  0
SPLINE
  5
104
100
AcDbEntity
  8
0
 62
7
100
AcDbSpline
 70
8
 71
3
 72
8
 73
4
 74
0
 40
0
 40
0
 40
0
 40
0
 40
1
 40
1
 40
1
 40
1
 10
76.985525
 20
157.291538
 30
0.0
 10
78.209726
 20
152.722754
 30
0.0
 10
90.698486
 20
128.540840
 30
0.0
 10
84.602114
 20
128.540840
 30
0.0
  0
SPLINE
  5
105
100
AcDbEntity
  8
0
 62
7
100
AcDbSpline
 70
8
 71
3
 72
8
 73
4
 74
0
 40
0
 40
0
 40
0
 40
0
 40
1
 40
1
 40
1
 40
1
 10
84.602114
 20
128.540840
 30
0.0
 10
44.078182
 20
128.540840
 30
0.0
 10
5.775747
 20
136.048362
 30
0.0
 10
5.760415
 20
157.291538
 30
0.0
  0
LWPOLYLINE
  5
106
100
AcDbEntity
  8
0
 62
7
100
AcDbPolyline
 90
2
 70
0
 10
161.890550
 20
167.474379
 30
0.0
 10
85.266673
 20
167.474379
 30
0.0
  0
SPLINE
  5
107
100
AcDbEntity
  8
0
 62
7
100
AcDbSpline
 70
8
 71
3
 72
8
 73
4
 74
0
 40
0
 40
0
 40
0
 40
0
 40
1
 40
1
 40
1
 40
1
 10
4.032355
 20
157.291538
 30
0.0
 10
4.042155
 20
131.643500
 30
0.0
 10
40.111099
 20
110.853240
 30
0.0
 10
84.602114
 20
110.852510
 30
0.0
  0
SPLINE
  5
108
100
AcDbEntity
  8
0
 62
7
100
AcDbSpline
 70
8
 71
3
 72
8
 73
4
 74
0
 40
0
 40
0
 40
0
 40
0
 40
1
 40
1
 40
1
 40
1
 10
84.602114
 20
110.852510
 30
0.0
 10
89.524259
 20
110.852480
 30
0.0
 10
107.540250
 20
112.894030
 30
0.0
 10
107.540250
 20
149.766932
 30
0.0
  0
SPLINE
  5
109
100
AcDbEntity
  8
0
 62
7
100
AcDbSpline
 70
8
 71
3
 72
8
 73
4
 74
0
 40
0
 40
0
 40
0
 40
0
 40
1
 40
1
 40
1
 40
1
 10
107.540250
 20
149.766932
 30
0.0
 10
107.540250
 20
149.766932
 30
0.0
 10
608.911820
 20
146.526820
 30
0.0
 10
626.776770
 20
146.526820
 30
0.0
  0
SPLINE
  5
10a
100
AcDbEntity
  8
0
 62
7
100
AcDbSpline
 70
8
 71
3
 72
8
 73
4
 74
0
 40
0
 40
0
 40
0
 40
0
 40
1
 40
1
 40
1
 40
1
 10
626.776770
 20
146.526820
 30
0.0
 10
639.639060
 20
146.526820
 30
0.0
 10
629.085940
 20
123.871300
 30
0.0
 10
641.417740
 20
123.871300
 30
0.0
  0
SPLINE
  5
10b
100
AcDbEntity
  8
0
 62
7
100
AcDbSpline
 70
8
 71
3
 72
8
 73
4
 74
0
 40
0
 40
0
 40
0
 40
0
 40
1
 40
1
 40
1
 40
1
 10
641.417740
 20
123.871300
 30
0.0
 10
653.390710
 20
123.871300
 30
0.0
 10
758.067600
 20
123.823800
 30
0.0
 10
769.862100
 20
123.871300
 30
0.0
  0
SPLINE
  5
10c
100
AcDbEntity
  8
0
 62
7
100
AcDbSpline
 70
8
 71
3
 72
8
 73
4
 74
0
 40
0
 40
0
 40
0
 40
0
 40
1
 40
1
 40
1
 40
1
 10
769.862100
 20
123.871300
 30
0.0
 10
774.313710
 20
123.889100
 30
0.0
 10
776.805680
 20
129.633730
 30
0.0
 10
776.682350
 20
131.871380
 30
0.0
  0
LWPOLYLINE
  5
10d
100
AcDbEntity
  8
0
 62
7
100
AcDbPolyline
 90
2
 70
0
 10
5.760415
 20
157.291538
 30
0.0
 10
4.032355
 20
157.291538
 30
0.0
  0
SPLINE
  5
10e
100
AcDbEntity
  8
0
 62
7
100
AcDbSpline
 70
8
 71
3
 72
8
 73
4
 74
0
 40
0
 40
0
 40
0
 40
0
 40
1
 40
1
 40
1
 40
1
 10
681.610550
 20
131.871300
 30
0.0
 10
674.516910
 20
131.871290
 30
0.0
 10
672.892820
 20
134.289580
 30
0.0
 10
672.892820
 20
140.951450
 30
0.0
  0
SPLINE
  5
10f
100
AcDbEntity
  8
0
 62
7
100
AcDbSpline
 70
8
 71
3
 72
8
 73
4
 74
0
 40
0
 40
0
 40
0
 40
0
 40
1
 40
1
 40
1
 40
1
 10
672.892820
 20
140.951450
 30
0.0
 10
672.892820
 20
144.304009
 30
0.0
 10
672.950720
 20
147.500183
 30
0.0
 10
672.950720
 20
149.766300
 30
0.0
  0
LWPOLYLINE
  5
110
100
AcDbEntity
  8
0
 62
7
100
AcDbPolyline
 90
2
 70
0
 10
776.682350
 20
131.871380
 30
0.0
 10
681.610550
 20
131.871300
 30
0.0
  0
SPLINE
  5
111
100
AcDbEntity
  8
0
 62
7
100
AcDbSpline
 70
8
 71
3
 72
8
 73
4
 74
0
 40
0
 40
0
 40
0
 40
0
 40
1
 40
1
 40
1
 40
1
 10
898.617560
 20
149.766416
 30
0.0
 10
898.617560
 20
149.766416
 30
0.0
 10
924.412710
 20
60.207000
 30
0.0
 10
936.931500
 20
15.564790
 30
0.0
  0
SPLINE
  5
112
100
AcDbEntity
  8
0
 62
7
100
AcDbSpline
 70
8
 71
3
 72
8
 73
4
 74
0
 40
0
 40
0
 40
0
 40
0
 40
1
 40
1
 40
1
 40
1
 10
936.931500
 20
15.564790
 30
0.0
 10
939.315430
 20
7.063490
 30
0.0
 10
948.077050
 20
2.137640
 30
0.0
 10
956.578370
 20
4.521530
 30
0.0
  0
LWPOLYLINE
  5
113
100
AcDbEntity
  8
0
 62
7
100
AcDbPolyline
 90
2
 70
0
 10
672.950720
 20
149.766300
 30
0.0
 10
898.617560
 20
149.766416
 30
0.0
  0
SPLINE
  5
114
100
AcDbEntity
  8
0
 62
7
100
AcDbSpline
 70
8
 71
3
 72
8
 73
4
 74
0
 40
0
 40
0
 40
0
 40
0
 40
1
 40
1
 40
1
 40
1
 10
979.595570
 20
10.976440
 30
0.0
 10
988.096900
 20
13.360350
 30
0.0
 10
993.023230
 20
22.125620
 30
0.0
 10
990.639340
 20
30.626920
 30
0.0
  0
SPLINE
  5
115
100
AcDbEntity
  8
0
 62
7
100
AcDbSpline
 70
8
 71
3
 72
8
 73
4
 74
0
 40
0
 40
0
 40
0
 40
0
 40
1
 40
1
 40
1
 40
1
 10
990.639340
 20
30.626920
 30
0.0
 10
990.639340
 20
30.626920
 30
0.0
 10
925.570330
 20
126.021000
 30
0.0
 10
955.496240
 20
155.946917
 30
0.0
  0
SPLINE
  5
116
100
AcDbEntity
  8
0
 62
7
100
AcDbSpline
 70
8
 71
3
 72
8
 73
4
 74
0
 40
0
 40
0
 40
0
 40
0
 40
1
 40
1
 40
1
 40
1
 10
955.496240
 20
155.946917
 30
0.0
 10
960.096890
 20
160.547570
 30
0.0
 10
946.931610
 20
167.746166
 30
0.0
 10
939.826400
 20
167.584966
 30
0.0
  0
LWPOLYLINE
  5
117
100
AcDbEntity
  8
0
 62
7
100
AcDbPolyline
 90
2
 70
0
 10
956.578370
 20
4.521530
 30
0.0
 10
979.595570
 20
10.976440
 30
0.0
  0
SPLINE
  5
118
100
AcDbEntity
  8
0
 62
7
100
AcDbSpline
 70
8
 71
3
 72
8
 73
4
 74
0
 40
0
 40
0
 40
0
 40
0
 40
1
 40
1
 40
1
 40
1
 10
939.826400
 20
167.585483
 30
0.0
 10
939.310810
 20
167.573283
 30
0.0
 10
938.793110
 20
167.537413
 30
0.0
 10
938.273000
 20
167.474379
 30
0.0
  0
LWPOLYLINE
  5
119
100
AcDbEntity
  8
0
 62
7
100
AcDbPolyline
 90
2
 70
0
 10
939.826400
 20
167.584966
 30
0.0
 10
939.826400
 20
167.585483
 30
0.0
  0
SPLINE
  5
11a
100
AcDbEntity
  8
0
 62
7
100
AcDbSpline
 70
8
 71
3
 72
8
 73
4
 74
0
 40
0
 40
0
 40
0
 40
0
 40
1
 40
1
 40
1
 40
1
 10
183.958550
 20
167.474379
 30
0.0
 10
181.463820
 20
167.474379
 30
0.0
 10
178.958550
 20
169.368352
 30
0.0
 10
178.958550
 20
171.884445
 30
0.0
  0
SPLINE
  5
11b
100
AcDbEntity
  8
0
 62
7
100
AcDbSpline
 70
8
 71
3
 72
8
 73
4
 74
0
 40
0
 40
0
 40
0
 40
0
 40
1
 40
1
 40
1
 40
1
 10
178.958550
 20
171.884445
 30
0.0
 10
178.958550
 20
174.661633
 30
0.0
 10
175.941220
 20
177.535873
 30
0.0
 10
172.924370
 20
177.547149
 30
0.0
  0
LWPOLYLINE
  5
11c
100
AcDbEntity
  8
0
 62
7
100
AcDbPolyline
 90
2
 70
0
 10
938.273000
 20
167.474379
 30
0.0
 10
183.958550
 20
167.474379
 30
0.0
  0
SPLINE
  5
11d
100
AcDbEntity
  8
0
 62
7
100
AcDbSpline
 70
8
 71
3
 72
8
 73
4
 74
0
 40
0
 40
0
 40
0
 40
0
 40
1
 40
1
 40
1
 40
1
 10
172.858270
 20
174.369565
 30
0.0
 10
174.294290
 20
174.369477
 30
0.0
 10
175.458310
 20
173.205225
 30
0.0
 10
175.458110
 20
171.769207
 30
0.0
  0
SPLINE
  5
11e
100
AcDbEntity
  8
0
 62
7
100
AcDbSpline
 70
8
 71
3
 72
8
 73
4
 74
0
 40
0
 40
0
 40
0
 40
0
 40
1
 40
1
 40
1
 40
1
 10
175.458110
 20
171.769207
 30
0.0
 10
175.458020
 20
170.333391
 30
0.0
 10
174.294090
 20
169.169454
 30
0.0
 10
172.858270
 20
169.169366
 30
0.0
  0
SPLINE
  5
11f
100
AcDbEntity
  8
0
 62
7
100
AcDbSpline
 70
8
 71
3
 72
8
 73
4
 74
0
 40
0
 40
0
 40
0
 40
0
 40
1
 40
1
 40
1
 40
1
 10
172.858270
 20
169.169366
 30
0.0
 10
171.422250
 20
169.169167
 30
0.0
 10
170.258000
 20
170.333188
 30
0.0
 10
170.257910
 20
171.769207
 30
0.0
  0
SPLINE
  5
120
100
AcDbEntity
  8
0
 62
7
100
AcDbSpline
 70
8
 71
3
 72
8
 73
4
 74
0
 40
0
 40
0
 40
0
 40
0
 40
1
 40
1
 40
1
 40
1
 10
170.257910
 20
171.769207
 30
0.0
 10
170.257710
 20
173.205428
 30
0.0
 10
171.422050
 20
174.369764
 30
0.0
 10
172.858270
 20
174.369565
 30
0.0
  0
LWPOLYLINE
  5
121
100
AcDbEntity
  8
0
 62
7
100
AcDbPolyline
 90
1
 70
1
 10
172.924370
 20
177.547149
 30
0.0
  0
SPLINE
  5
122
100
AcDbEntity
  8
0
 62
7
100
AcDbSpline
 70
8
 71
3
 72
8
 73
4
 74
0
 40
0
 40
0
 40
0
 40
0
 40
1
 40
1
 40
1
 40
1
 10
86.127085
 20
161.170371
 30
0.0
 10
87.562901
 20
161.170284
 30
0.0
 10
88.726840
 20
160.006345
 30
0.0
 10
88.726927
 20
158.570529
 30
0.0
  0
SPLINE
  5
123
100
AcDbEntity
  8
0
 62
7
100
AcDbSpline
 70
8
 71
3
 72
8
 73
4
 74
0
 40
0
 40
0
 40
0
 40
0
 40
1
 40
1
 40
1
 40
1
 10
88.726927
 20
158.570529
 30
0.0
 10
88.726839
 20
157.134714
 30
0.0
 10
87.562901
 20
155.970775
 30
0.0
 10
86.127085
 20
155.970688
 30
0.0
  0
SPLINE
  5
124
100
AcDbEntity
  8
0
 62
7
100
AcDbSpline
 70
8
 71
3
 72
8
 73
4
 74
0
 40
0
 40
0
 40
0
 40
0
 40
1
 40
1
 40
1
 40
1
 10
86.127085
 20
155.970688
 30
0.0
 10
84.691069
 20
155.970490
 30
0.0
 10
83.526815
 20
157.134513
 30
0.0
 10
83.526727
 20
158.570529
 30
0.0
  0
SPLINE
  5
125
100
AcDbEntity
  8
0
 62
7
100
AcDbSpline
 70
8
 71
3
 72
8
 73
4
 74
0
 40
0
 40
0
 40
0
 40
0
 40
1
 40
1
 40
1
 40
1
 10
83.526727
 20
158.570529
 30
0.0
 10
83.526814
 20
160.006546
 30
0.0
 10
84.691069
 20
161.170569
 30
0.0
 10
86.127085
 20
161.170371
 30
0.0
  0
LWPOLYLINE
  5
126
100
AcDbEntity
  8
0
 62
7
100
AcDbPolyline
 90
1
 70
1
 10
172.858270
 20
174.369565
 30
0.0
  0
SPLINE
  5
127
100
AcDbEntity
  8
0
 62
7
100
AcDbSpline
 70
8
 71
3
 72
8
 73
4
 74
0
 40
0
 40
0
 40
0
 40
0
 40
1
 40
1
 40
1
 40
1
 10
660.410380
 20
161.060817
 30
0.0
 10
661.846200
 20
161.060728
 30
0.0
 10
663.010130
 20
159.896790
 30
0.0
 10
663.010220
 20
158.460975
 30
0.0
  0
SPLINE
  5
128
100
AcDbEntity
  8
0
 62
7
100
AcDbSpline
 70
8
 71
3
 72
8
 73
4
 74
0
 40
0
 40
0
 40
0
 40
0
 40
1
 40
1
 40
1
 40
1
 10
663.010220
 20
158.460975
 30
0.0
 10
663.010420
 20
157.024959
 30
0.0
 10
661.846400
 20
155.860705
 30
0.0
 10
660.410380
 20
155.860617
 30
0.0
  0
SPLINE
  5
129
100
AcDbEntity
  8
0
 62
7
100
AcDbSpline
 70
8
 71
3
 72
8
 73
4
 74
0
 40
0
 40
0
 40
0
 40
0
 40
1
 40
1
 40
1
 40
1
 10
660.410380
 20
155.860617
 30
0.0
 10
658.974360
 20
155.860705
 30
0.0
 10
657.810340
 20
157.024959
 30
0.0
 10
657.810540
 20
158.460975
 30
0.0
  0
SPLINE
  5
12a
100
AcDbEntity
  8
0
 62
7
100
AcDbSpline
 70
8
 71
3
 72
8
 73
4
 74
0
 40
0
 40
0
 40
0
 40
0
 40
1
 40
1
 40
1
 40
1
 10
657.810540
 20
158.460975
 30
0.0
 10
657.810630
 20
159.896790
 30
0.0
 10
658.974560
 20
161.060728
 30
0.0
 10
660.410380
 20
161.060817
 30
0.0
  0
LWPOLYLINE
  5
12b
100
AcDbEntity
  8
0
 62
7
100
AcDbPolyline
 90
1
 70
1
 10
86.127085
 20
161.170371
 30
0.0
  0
SPLINE
  5
12c
100
AcDbEntity
  8
0
 62
7
100
AcDbSpline
 70
8
 71
3
 72
8
 73
4
 74
0
 40
0
 40
0
 40
0
 40
0
 40
1
 40
1
 40
1
 40
1
 10
777.058040
 20
161.060817
 30
0.0
 10
778.493860
 20
161.060728
 30
0.0
 10
779.657790
 20
159.896790
 30
0.0
 10
779.657880
 20
158.460975
 30
0.0
  0
SPLINE
  5
12d
100
AcDbEntity
  8
0
 62
7
100
AcDbSpline
 70
8
 71
3
 72
8
 73
4
 74
0
 40
0
 40
0
 40
0
 40
0
 40
1
 40
1
 40
1
 40
1
 10
779.657880
 20
158.460975
 30
0.0
 10
779.658080
 20
157.024959
 30
0.0
 10
778.494060
 20
155.860705
 30
0.0
 10
777.058040
 20
155.860617
 30
0.0
  0
SPLINE
  5
12e
100
AcDbEntity
  8
0
 62
7
100
AcDbSpline
 70
8
 71
3
 72
8
 73
4
 74
0
 40
0
 40
0
 40
0
 40
0
 40
1
 40
1
 40
1
 40
1
 10
777.058040
 20
155.860617
 30
0.0
 10
775.621820
 20
155.860418
 30
0.0
 10
774.457480
 20
157.024756
 30
0.0
 10
774.457680
 20
158.460975
 30
0.0
  0
SPLINE
  5
12f
100
AcDbEntity
  8
0
 62
7
100
AcDbSpline
 70
8
 71
3
 72
8
 73
4
 74
0
 40
0
 40
0
 40
0
 40
0
 40
1
 40
1
 40
1
 40
1
 10
774.457680
 20
158.460975
 30
0.0
 10
774.457770
 20
159.896993
 30
0.0
 10
775.622020
 20
161.061016
 30
0.0
 10
777.058040
 20
161.060817
 30
0.0
  0
LWPOLYLINE
  5
130
100
AcDbEntity
  8
0
 62
7
100
AcDbPolyline
 90
1
 70
1
 10
660.410380
 20
161.060817
 30
0.0
  0
SPLINE
  5
131
100
AcDbEntity
  8
0
 62
7
100
AcDbSpline
 70
8
 71
3
 72
8
 73
4
 74
0
 40
0
 40
0
 40
0
 40
0
 40
1
 40
1
 40
1
 40
1
 10
898.150550
 20
149.463075
 30
0.0
 10
898.150550
 20
149.463075
 30
0.0
 10
715.093880
 20
149.438265
 30
0.0
 10
709.082510
 20
149.438265
 30
0.0
  0
SPLINE
  5
132
100
AcDbEntity
  8
0
 62
7
100
AcDbSpline
 70
8
 71
3
 72
8
 73
4
 74
0
 40
0
 40
0
 40
0
 40
0
 40
1
 40
1
 40
1
 40
1
 10
709.082510
 20
149.438265
 30
0.0
 10
709.082510
 20
146.036083
 30
0.0
 10
709.063910
 20
144.404582
 30
0.0
 10
709.063910
 20
140.995370
 30
0.0
  0
SPLINE
  5
133
100
AcDbEntity
  8
0
 62
7
100
AcDbSpline
 70
8
 71
3
 72
8
 73
4
 74
0
 40
0
 40
0
 40
0
 40
0
 40
1
 40
1
 40
1
 40
1
 10
709.063910
 20
140.995370
 30
0.0
 10
709.063910
 20
134.533950
 30
0.0
 10
711.237970
 20
132.056380
 30
0.0
 10
717.371420
 20
132.056380
 30
0.0
  0
SPLINE
  5
134
100
AcDbEntity
  8
0
 62
7
100
AcDbSpline
 70
8
 71
3
 72
8
 73
4
 74
0
 40
0
 40
0
 40
0
 40
0
 40
1
 40
1
 40
1
 40
1
 10
717.371420
 20
132.056380
 30
0.0
 10
753.718250
 20
132.056380
 30
0.0
 10
848.197270
 20
132.009480
 30
0.0
 10
855.084460
 20
132.056380
 30
0.0
  0
SPLINE
  5
135
100
AcDbEntity
  8
0
 62
7
100
AcDbSpline
 70
8
 71
3
 72
8
 73
4
 74
0
 40
0
 40
0
 40
0
 40
0
 40
1
 40
1
 40
1
 40
1
 10
855.084460
 20
132.056380
 30
0.0
 10
862.152470
 20
132.056380
 30
0.0
 10
866.607080
 20
132.926610
 30
0.0
 10
871.835890
 20
132.926610
 30
0.0
  0
SPLINE
  5
136
100
AcDbEntity
  8
0
 62
7
100
AcDbSpline
 70
8
 71
3
 72
8
 73
4
 74
0
 40
0
 40
0
 40
0
 40
0
 40
1
 40
1
 40
1
 40
1
 10
871.835890
 20
132.926610
 30
0.0
 10
881.248680
 20
132.927150
 30
0.0
 10
888.879840
 20
125.296490
 30
0.0
 10
888.879290
 20
115.883720
 30
0.0
  0
SPLINE
  5
137
100
AcDbEntity
  8
0
 62
7
100
AcDbSpline
 70
8
 71
3
 72
8
 73
4
 74
0
 40
0
 40
0
 40
0
 40
0
 40
1
 40
1
 40
1
 40
1
 10
888.879290
 20
115.883720
 30
0.0
 10
888.875290
 20
110.563740
 30
0.0
 10
886.386390
 20
105.550960
 30
0.0
 10
882.151540
 20
102.331070
 30
0.0
  0
SPLINE
  5
138
100
AcDbEntity
  8
0
 62
7
100
AcDbSpline
 70
8
 71
3
 72
8
 73
4
 74
0
 40
0
 40
0
 40
0
 40
0
 40
1
 40
1
 40
1
 40
1
 10
882.151540
 20
102.331070
 30
0.0
 10
890.706330
 20
101.293100
 30
0.0
 10
897.140060
 20
94.032330
 30
0.0
 10
897.140800
 20
85.414790
 30
0.0
  0
SPLINE
  5
139
100
AcDbEntity
  8
0
 62
7
100
AcDbSpline
 70
8
 71
3
 72
8
 73
4
 74
0
 40
0
 40
0
 40
0
 40
0
 40
1
 40
1
 40
1
 40
1
 10
897.140800
 20
85.414790
 30
0.0
 10
897.138800
 20
80.305490
 30
0.0
 10
894.843400
 20
75.466840
 30
0.0
 10
890.888470
 20
72.232120
 30
0.0
  0
SPLINE
  5
13a
100
AcDbEntity
  8
0
 62
7
100
AcDbSpline
 70
8
 71
3
 72
8
 73
4
 74
0
 40
0
 40
0
 40
0
 40
0
 40
1
 40
1
 40
1
 40
1
 10
890.888470
 20
72.232120
 30
0.0
 10
898.995280
 20
70.760880
 30
0.0
 10
904.888440
 20
63.700840
 30
0.0
 10
904.887100
 20
55.461580
 30
0.0
  0
SPLINE
  5
13b
100
AcDbEntity
  8
0
 62
7
100
AcDbSpline
 70
8
 71
3
 72
8
 73
4
 74
0
 40
0
 40
0
 40
0
 40
0
 40
1
 40
1
 40
1
 40
1
 10
904.887100
 20
55.461580
 30
0.0
 10
904.885100
 20
50.807340
 30
0.0
 10
902.979120
 20
46.356600
 30
0.0
 10
899.612490
 20
43.142950
 30
0.0
  0
SPLINE
  5
13c
100
AcDbEntity
  8
0
 62
7
100
AcDbSpline
 70
8
 71
3
 72
8
 73
4
 74
0
 40
0
 40
0
 40
0
 40
0
 40
1
 40
1
 40
1
 40
1
 10
899.612490
 20
43.142950
 30
0.0
 10
908.116030
 20
42.051410
 30
0.0
 10
914.484700
 20
34.812400
 30
0.0
 10
914.484450
 20
26.239070
 30
0.0
  0
SPLINE
  5
13d
100
AcDbEntity
  8
0
 62
7
100
AcDbSpline
 70
8
 71
3
 72
8
 73
4
 74
0
 40
0
 40
0
 40
0
 40
0
 40
1
 40
1
 40
1
 40
1
 10
914.484450
 20
26.239070
 30
0.0
 10
914.483840
 20
21.037590
 30
0.0
 10
912.107930
 20
16.121230
 30
0.0
 10
908.032650
 20
12.888980
 30
0.0
  0
SPLINE
  5
13e
100
AcDbEntity
  8
0
 62
7
100
AcDbSpline
 70
8
 71
3
 72
8
 73
4
 74
0
 40
0
 40
0
 40
0
 40
0
 40
1
 40
1
 40
1
 40
1
 10
908.032650
 20
12.888980
 30
0.0
 10
908.032650
 20
12.888980
 30
0.0
 10
908.037650
 20
12.550860
 30
0.0
 10
908.156150
 20
12.461620
 30
0.0
  0
SPLINE
  5
13f
100
AcDbEntity
  8
0
 62
7
100
AcDbSpline
 70
8
 71
3
 72
8
 73
4
 74
0
 40
0
 40
0
 40
0
 40
0
 40
1
 40
1
 40
1
 40
1
 10
908.156150
 20
12.461620
 30
0.0
 10
915.983270
 20
6.562860
 30
0.0
 10
937.559010
 20
12.398020
 30
0.0
 10
937.559010
 20
12.398020
 30
0.0
  0
LWPOLYLINE
  5
140
100
AcDbEntity
  8
0
 62
7
100
AcDbPolyline
 90
1
 70
1
 10
777.058040
 20
161.060817
 30
0.0
  0
SPLINE
  5
141
100
AcDbEntity
  8
0
 62
7
100
AcDbSpline
 70
8
 71
3
 72
8
 73
4
 74
0
 40
0
 40
0
 40
0
 40
0
 40
1
 40
1
 40
1
 40
1
 10
744.918040
 20
143.699086
 30
0.0
 10
746.353860
 20
143.699003
 30
0.0
 10
747.517800
 20
142.535064
 30
0.0
 10
747.517890
 20
141.099244
 30
0.0
  0
SPLINE
  5
142
100
AcDbEntity
  8
0
 62
7
100
AcDbSpline
 70
8
 71
3
 72
8
 73
4
 74
0
 40
0
 40
0
 40
0
 40
0
 40
1
 40
1
 40
1
 40
1
 10
747.517890
 20
141.099244
 30
0.0
 10
747.518090
 20
139.663222
 30
0.0
 10
746.354060
 20
138.498969
 30
0.0
 10
744.918040
 20
138.498886
 30
0.0
  0
SPLINE
  5
143
100
AcDbEntity
  8
0
 62
7
100
AcDbSpline
 70
8
 71
3
 72
8
 73
4
 74
0
 40
0
 40
0
 40
0
 40
0
 40
1
 40
1
 40
1
 40
1
 10
744.918040
 20
138.498886
 30
0.0
 10
743.481820
 20
138.498693
 30
0.0
 10
742.317490
 20
139.663027
 30
0.0
 10
742.317690
 20
141.099244
 30
0.0
  0
SPLINE
  5
144
100
AcDbEntity
  8
0
 62
7
100
AcDbSpline
 70
8
 71
3
 72
8
 73
4
 74
0
 40
0
 40
0
 40
0
 40
0
 40
1
 40
1
 40
1
 40
1
 10
742.317690
 20
141.099244
 30
0.0
 10
742.317780
 20
142.535259
 30
0.0
 10
743.482020
 20
143.699279
 30
0.0
 10
744.918040
 20
143.699086
 30
0.0
  0
LWPOLYLINE
  5
145
100
AcDbEntity
  8
0
 62
7
100
AcDbPolyline
 90
2
 70
0
 10
937.559010
 20
12.398020
 30
0.0
 10
898.150550
 20
149.463075
 30
0.0
  0
SPLINE
  5
146
100
AcDbEntity
  8
0
 62
7
100
AcDbSpline
 70
8
 71
3
 72
8
 73
4
 74
0
 40
0
 40
0
 40
0
 40
0
 40
1
 40
1
 40
1
 40
1
 10
859.694500
 20
143.699086
 30
0.0
 10
861.130320
 20
143.698998
 30
0.0
 10
862.294250
 20
142.535060
 30
0.0
 10
862.294340
 20
141.099244
 30
0.0
  0
SPLINE
  5
147
100
AcDbEntity
  8
0
 62
7
100
AcDbSpline
 70
8
 71
3
 72
8
 73
4
 74
0
 40
0
 40
0
 40
0
 40
0
 40
1
 40
1
 40
1
 40
1
 10
862.294340
 20
141.099244
 30
0.0
 10
862.294250
 20
139.663428
 30
0.0
 10
861.130320
 20
138.499491
 30
0.0
 10
859.694500
 20
138.499403
 30
0.0
  0
SPLINE
  5
148
100
AcDbEntity
  8
0
 62
7
100
AcDbSpline
 70
8
 71
3
 72
8
 73
4
 74
0
 40
0
 40
0
 40
0
 40
0
 40
1
 40
1
 40
1
 40
1
 10
859.694500
 20
138.499403
 30
0.0
 10
858.258680
 20
138.499491
 30
0.0
 10
857.094750
 20
139.663428
 30
0.0
 10
857.094660
 20
141.099244
 30
0.0
  0
SPLINE
  5
149
100
AcDbEntity
  8
0
 62
7
100
AcDbSpline
 70
8
 71
3
 72
8
 73
4
 74
0
 40
0
 40
0
 40
0
 40
0
 40
1
 40
1
 40
1
 40
1
 10
857.094660
 20
141.099244
 30
0.0
 10
857.094750
 20
142.535060
 30
0.0
 10
858.258680
 20
143.698998
 30
0.0
 10
859.694500
 20
143.699086
 30
0.0
  0
LWPOLYLINE
  5
14a
100
AcDbEntity
  8
0
 62
7
100
AcDbPolyline
 90
1
 70
1
 10
744.918040
 20
143.699086
 30
0.0
  0
SPLINE
  5
14b
100
AcDbEntity
  8
0
 62
7
100
AcDbSpline
 70
8
 71
3
 72
8
 73
4
 74
0
 40
0
 40
0
 40
0
 40
0
 40
1
 40
1
 40
1
 40
1
 10
715.599420
 20
140.790219
 30
0.0
 10
717.035240
 20
140.790131
 30
0.0
 10
718.199170
 20
139.626194
 30
0.0
 10
718.199260
 20
138.190378
 30
0.0
  0
SPLINE
  5
14c
100
AcDbEntity
  8
0
 62
7
100
AcDbSpline
 70
8
 71
3
 72
8
 73
4
 74
0
 40
0
 40
0
 40
0
 40
0
 40
1
 40
1
 40
1
 40
1
 10
718.199260
 20
138.190378
 30
0.0
 10
718.199170
 20
136.754562
 30
0.0
 10
717.035240
 20
135.590625
 30
0.0
 10
715.599420
 20
135.590537
 30
0.0
  0
SPLINE
  5
14d
100
AcDbEntity
  8
0
 62
7
100
AcDbSpline
 70
8
 71
3
 72
8
 73
4
 74
0
 40
0
 40
0
 40
0
 40
0
 40
1
 40
1
 40
1
 40
1
 10
715.599420
 20
135.590537
 30
0.0
 10
714.163400
 20
135.590338
 30
0.0
 10
712.999150
 20
136.754359
 30
0.0
 10
712.999060
 20
138.190378
 30
0.0
  0
SPLINE
  5
14e
100
AcDbEntity
  8
0
 62
7
100
AcDbSpline
 70
8
 71
3
 72
8
 73
4
 74
0
 40
0
 40
0
 40
0
 40
0
 40
1
 40
1
 40
1
 40
1
 10
712.999060
 20
138.190378
 30
0.0
 10
712.999150
 20
139.626397
 30
0.0
 10
714.163400
 20
140.790418
 30
0.0
 10
715.599420
 20
140.790219
 30
0.0
  0
LWPOLYLINE
  5
14f
100
AcDbEntity
  8
0
 62
7
100
AcDbPolyline
 90
1
 70
1
 10
859.694500
 20
143.699086
 30
0.0
  0
SPLINE
  5
150
100
AcDbEntity
  8
0
 62
7
100
AcDbSpline
 70
8
 71
3
 72
8
 73
4
 74
0
 40
0
 40
0
 40
0
 40
0
 40
1
 40
1
 40
1
 40
1
 10
724.638220
 20
58.591580
 30
0.0
 10
724.608620
 20
58.517880
 30
0.0
 10
724.579420
 20
58.443890
 30
0.0
 10
724.550320
 20
58.370170
 30
0.0
  0
SPLINE
  5
151
100
AcDbEntity
  8
0
 62
7
100
AcDbSpline
 70
8
 71
3
 72
8
 73
4
 74
0
 40
0
 40
0
 40
0
 40
0
 40
1
 40
1
 40
1
 40
1
 10
724.550320
 20
58.370170
 30
0.0
 10
721.633490
 20
50.985870
 30
0.0
 10
721.073350
 20
43.604450
 30
0.0
 10
723.342420
 20
36.755750
 30
0.0
  0
LWPOLYLINE
  5
152
100
AcDbEntity
  8
0
 62
7
100
AcDbPolyline
 90
1
 70
1
 10
715.599420
 20
140.790219
 30
0.0
  0
SPLINE
  5
153
100
AcDbEntity
  8
0
 62
7
100
AcDbSpline
 70
8
 71
3
 72
8
 73
4
 74
0
 40
0
 40
0
 40
0
 40
0
 40
1
 40
1
 40
1
 40
1
 10
724.982980
 20
37.298140
 30
0.0
 10
718.297270
 20
57.472080
 30
0.0
 10
752.300240
 20
76.651200
 30
0.0
 10
790.774670
 20
89.401260
 30
0.0
  0
SPLINE
  5
154
100
AcDbEntity
  8
0
 62
7
100
AcDbSpline
 70
8
 71
3
 72
8
 73
4
 74
0
 40
0
 40
0
 40
0
 40
0
 40
1
 40
1
 40
1
 40
1
 10
790.774670
 20
89.401260
 30
0.0
 10
793.664930
 20
90.359040
 30
0.0
 10
786.699730
 20
80.688190
 30
0.0
 10
792.199000
 20
61.900830
 30
0.0
  0
SPLINE
  5
155
100
AcDbEntity
  8
0
 62
7
100
AcDbSpline
 70
8
 71
3
 72
8
 73
4
 74
0
 40
0
 40
0
 40
0
 40
0
 40
1
 40
1
 40
1
 40
1
 10
792.199000
 20
61.900830
 30
0.0
 10
792.271445
 20
61.521435
 30
0.0
 10
792.367936
 20
61.147030
 30
0.0
 10
792.487890
 20
60.779880
 30
0.0
  0
SPLINE
  5
156
100
AcDbEntity
  8
0
 62
7
100
AcDbSpline
 70
8
 71
3
 72
8
 73
4
 74
0
 40
0
 40
0
 40
0
 40
0
 40
1
 40
1
 40
1
 40
1
 10
792.487890
 20
60.779880
 30
0.0
 10
792.575815
 20
60.519654
 30
0.0
 10
792.675460
 20
60.263535
 30
0.0
 10
792.786520
 20
60.012310
 30
0.0
  0
SPLINE
  5
157
100
AcDbEntity
  8
0
 62
7
100
AcDbSpline
 70
8
 71
3
 72
8
 73
4
 74
0
 40
0
 40
0
 40
0
 40
0
 40
1
 40
1
 40
1
 40
1
 10
792.786520
 20
60.012310
 30
0.0
 10
792.810520
 20
59.937910
 30
0.0
 10
792.831520
 20
59.866370
 30
0.0
 10
792.855720
 20
59.791630
 30
0.0
  0
LWPOLYLINE
  5
158
100
AcDbEntity
  8
0
 62
7
100
AcDbPolyline
 90
4
 70
0
 10
723.342420
 20
36.755750
 30
0.0
 10
723.346420
 20
36.743350
 30
0.0
 10
724.986980
 20
37.285740
 30
0.0
 10
724.982980
 20
37.298140
 30
0.0
  0
SPLINE
  5
159
100
AcDbEntity
  8
0
 62
7
100
AcDbSpline
 70
8
 71
3
 72
8
 73
4
 74
0
 40
0
 40
0
 40
0
 40
0
 40
1
 40
1
 40
1
 40
1
 10
792.883320
 20
59.800630
 30
0.0
 10
794.834873
 20
55.609785
 30
0.0
 10
799.615167
 20
53.544108
 30
0.0
 10
804.004590
 20
54.994870
 30
0.0
  0
SPLINE
  5
15a
100
AcDbEntity
  8
0
 62
7
100
AcDbSpline
 70
8
 71
3
 72
8
 73
4
 74
0
 40
0
 40
0
 40
0
 40
0
 40
1
 40
1
 40
1
 40
1
 10
804.004590
 20
54.994870
 30
0.0
 10
804.047447
 20
55.013308
 30
0.0
 10
804.090161
 20
55.032076
 30
0.0
 10
804.132730
 20
55.051170
 30
0.0
  0
LWPOLYLINE
  5
15b
100
AcDbEntity
  8
0
 62
7
100
AcDbPolyline
 90
2
 70
0
 10
792.855720
 20
59.791630
 30
0.0
 10
792.883320
 20
59.800630
 30
0.0
  0
SPLINE
  5
15c
100
AcDbEntity
  8
0
 62
7
100
AcDbSpline
 70
8
 71
3
 72
8
 73
4
 74
0
 40
0
 40
0
 40
0
 40
0
 40
1
 40
1
 40
1
 40
1
 10
862.930780
 20
55.927100
 30
0.0
 10
864.043827
 20
55.852965
 30
0.0
 10
865.160682
 20
55.995603
 30
0.0
 10
866.219370
 20
56.347100
 30
0.0
  0
SPLINE
  5
15d
100
AcDbEntity
  8
0
 62
7
100
AcDbSpline
 70
8
 71
3
 72
8
 73
4
 74
0
 40
0
 40
0
 40
0
 40
0
 40
1
 40
1
 40
1
 40
1
 10
866.219370
 20
56.347100
 30
0.0
 10
870.735276
 20
57.849993
 30
0.0
 10
873.178203
 20
62.728814
 30
0.0
 10
871.676180
 20
67.245010
 30
0.0
  0
SPLINE
  5
15e
100
AcDbEntity
  8
0
 62
7
100
AcDbSpline
 70
8
 71
3
 72
8
 73
4
 74
0
 40
0
 40
0
 40
0
 40
0
 40
1
 40
1
 40
1
 40
1
 10
871.676180
 20
67.245010
 30
0.0
 10
870.409187
 20
71.056949
 30
0.0
 10
866.676846
 20
73.488195
 30
0.0
 10
862.678050
 20
73.106390
 30
0.0
  0
LWPOLYLINE
  5
15f
100
AcDbEntity
  8
0
 62
7
100
AcDbPolyline
 90
3
 70
0
 10
804.132730
 20
55.051170
 30
0.0
 10
862.930250
 20
55.909900
 30
0.0
 10
862.930780
 20
55.927100
 30
0.0
  0
SPLINE
  5
160
100
AcDbEntity
  8
0
 62
7
100
AcDbSpline
 70
8
 71
3
 72
8
 73
4
 74
0
 40
0
 40
0
 40
0
 40
0
 40
1
 40
1
 40
1
 40
1
 10
808.339730
 20
72.326420
 30
0.0
 10
803.904100
 20
96.688550
 30
0.0
 10
817.254380
 20
116.811150
 30
0.0
 10
785.208850
 20
106.191680
 30
0.0
  0
SPLINE
  5
161
100
AcDbEntity
  8
0
 62
7
100
AcDbSpline
 70
8
 71
3
 72
8
 73
4
 74
0
 40
0
 40
0
 40
0
 40
0
 40
1
 40
1
 40
1
 40
1
 10
785.208850
 20
106.191680
 30
0.0
 10
754.969480
 20
96.170220
 30
0.0
 10
732.182880
 20
77.388900
 30
0.0
 10
724.638220
 20
58.591610
 30
0.0
  0
LWPOLYLINE
  5
162
100
AcDbEntity
  8
0
 62
7
100
AcDbPolyline
 90
3
 70
0
 10
862.678050
 20
73.106390
 30
0.0
 10
862.677050
 20
73.119990
 30
0.0
 10
808.339730
 20
72.326420
 30
0.0
  0
SPLINE
  5
163
100
AcDbEntity
  8
0
 62
7
100
AcDbSpline
 70
8
 71
3
 72
8
 73
4
 74
0
 40
0
 40
0
 40
0
 40
0
 40
1
 40
1
 40
1
 40
1
 10
794.494730
 20
99.966850
 30
0.0
 10
795.114873
 20
101.499304
 30
0.0
 10
796.859873
 20
102.238906
 30
0.0
 10
798.392350
 20
101.618820
 30
0.0
  0
SPLINE
  5
164
100
AcDbEntity
  8
0
 62
7
100
AcDbSpline
 70
8
 71
3
 72
8
 73
4
 74
0
 40
0
 40
0
 40
0
 40
0
 40
1
 40
1
 40
1
 40
1
 10
798.392350
 20
101.618820
 30
0.0
 10
799.128344
 20
101.320982
 30
0.0
 10
799.715862
 20
100.742946
 30
0.0
 10
800.025635
 20
100.011895
 30
0.0
  0
SPLINE
  5
165
100
AcDbEntity
  8
0
 62
7
100
AcDbSpline
 70
8
 71
3
 72
8
 73
4
 74
0
 40
0
 40
0
 40
0
 40
0
 40
1
 40
1
 40
1
 40
1
 10
800.025635
 20
100.011895
 30
0.0
 10
800.335408
 20
99.280845
 30
0.0
 10
800.342058
 20
98.456674
 30
0.0
 10
800.044120
 20
97.720720
 30
0.0
  0
SPLINE
  5
166
100
AcDbEntity
  8
0
 62
7
100
AcDbSpline
 70
8
 71
3
 72
8
 73
4
 74
0
 40
0
 40
0
 40
0
 40
0
 40
1
 40
1
 40
1
 40
1
 10
800.044120
 20
97.720720
 30
0.0
 10
799.746282
 20
96.984726
 30
0.0
 10
799.168246
 20
96.397208
 30
0.0
 10
798.437195
 20
96.087435
 30
0.0
  0
SPLINE
  5
167
100
AcDbEntity
  8
0
 62
7
100
AcDbSpline
 70
8
 71
3
 72
8
 73
4
 74
0
 40
0
 40
0
 40
0
 40
0
 40
1
 40
1
 40
1
 40
1
 10
798.437195
 20
96.087435
 30
0.0
 10
797.706145
 20
95.777662
 30
0.0
 10
796.881974
 20
95.771012
 30
0.0
 10
796.146020
 20
96.068950
 30
0.0
  0
SPLINE
  5
168
100
AcDbEntity
  8
0
 62
7
100
AcDbSpline
 70
8
 71
3
 72
8
 73
4
 74
0
 40
0
 40
0
 40
0
 40
0
 40
1
 40
1
 40
1
 40
1
 10
796.146020
 20
96.068950
 30
0.0
 10
794.613679
 20
96.689360
 30
0.0
 10
793.874382
 20
98.434484
 30
0.0
 10
794.494730
 20
99.966850
 30
0.0
  0
LWPOLYLINE
  5
169
100
AcDbEntity
  8
0
 62
7
100
AcDbPolyline
 90
1
 70
1
 10
724.638220
 20
58.591610
 30
0.0
  0
SPLINE
  5
16a
100
AcDbEntity
  8
0
 62
7
100
AcDbSpline
 70
8
 71
3
 72
8
 73
4
 74
0
 40
0
 40
0
 40
0
 40
0
 40
1
 40
1
 40
1
 40
1
 10
798.301660
 20
64.531210
 30
0.0
 10
798.840438
 20
65.862110
 30
0.0
 10
800.356046
 20
66.504330
 30
0.0
 10
801.687010
 20
65.965710
 30
0.0
  0
SPLINE
  5
16b
100
AcDbEntity
  8
0
 62
7
100
AcDbSpline
 70
8
 71
3
 72
8
 73
4
 74
0
 40
0
 40
0
 40
0
 40
0
 40
1
 40
1
 40
1
 40
1
 10
801.687010
 20
65.965710
 30
0.0
 10
803.017910
 20
65.426932
 30
0.0
 10
803.660130
 20
63.911324
 30
0.0
 10
803.121510
 20
62.580360
 30
0.0
  0
SPLINE
  5
16c
100
AcDbEntity
  8
0
 62
7
100
AcDbSpline
 70
8
 71
3
 72
8
 73
4
 74
0
 40
0
 40
0
 40
0
 40
0
 40
1
 40
1
 40
1
 40
1
 10
803.121510
 20
62.580360
 30
0.0
 10
802.862869
 20
61.941103
 30
0.0
 10
802.360867
 20
61.430781
 30
0.0
 10
801.725948
 20
61.161669
 30
0.0
  0
SPLINE
  5
16d
100
AcDbEntity
  8
0
 62
7
100
AcDbSpline
 70
8
 71
3
 72
8
 73
4
 74
0
 40
0
 40
0
 40
0
 40
0
 40
1
 40
1
 40
1
 40
1
 10
801.725948
 20
61.161669
 30
0.0
 10
801.091029
 20
60.892557
 30
0.0
 10
800.375207
 20
60.886701
 30
0.0
 10
799.735970
 20
61.145390
 30
0.0
  0
SPLINE
  5
16e
100
AcDbEntity
  8
0
 62
7
100
AcDbSpline
 70
8
 71
3
 72
8
 73
4
 74
0
 40
0
 40
0
 40
0
 40
0
 40
1
 40
1
 40
1
 40
1
 10
799.735970
 20
61.145390
 30
0.0
 10
799.096764
 20
61.404155
 30
0.0
 10
798.586540
 20
61.906257
 30
0.0
 10
798.317551
 20
62.541229
 30
0.0
  0
SPLINE
  5
16f
100
AcDbEntity
  8
0
 62
7
100
AcDbSpline
 70
8
 71
3
 72
8
 73
4
 74
0
 40
0
 40
0
 40
0
 40
0
 40
1
 40
1
 40
1
 40
1
 10
798.317551
 20
62.541229
 30
0.0
 10
798.048563
 20
63.176201
 30
0.0
 10
798.042846
 20
63.892023
 30
0.0
 10
798.301660
 20
64.531210
 30
0.0
  0
LWPOLYLINE
  5
170
100
AcDbEntity
  8
0
 62
7
100
AcDbPolyline
 90
1
 70
1
 10
794.494730
 20
99.966850
 30
0.0
  0
SPLINE
  5
171
100
AcDbEntity
  8
0
 62
7
100
AcDbSpline
 70
8
 71
3
 72
8
 73
4
 74
0
 40
0
 40
0
 40
0
 40
0
 40
1
 40
1
 40
1
 40
1
 10
861.261950
 20
65.427120
 30
0.0
 10
861.800728
 20
66.758014
 30
0.0
 10
863.316329
 20
67.400233
 30
0.0
 10
864.647290
 20
66.861620
 30
0.0
  0
SPLINE
  5
172
100
AcDbEntity
  8
0
 62
7
100
AcDbSpline
 70
8
 71
3
 72
8
 73
4
 74
0
 40
0
 40
0
 40
0
 40
0
 40
1
 40
1
 40
1
 40
1
 10
864.647290
 20
66.861620
 30
0.0
 10
865.978190
 20
66.322842
 30
0.0
 10
866.620410
 20
64.807234
 30
0.0
 10
866.081790
 20
63.476270
 30
0.0
  0
SPLINE
  5
173
100
AcDbEntity
  8
0
 62
7
100
AcDbSpline
 70
8
 71
3
 72
8
 73
4
 74
0
 40
0
 40
0
 40
0
 40
0
 40
1
 40
1
 40
1
 40
1
 10
866.081790
 20
63.476270
 30
0.0
 10
865.823151
 20
62.837012
 30
0.0
 10
865.321150
 20
62.326687
 30
0.0
 10
864.686230
 20
62.057573
 30
0.0
  0
SPLINE
  5
174
100
AcDbEntity
  8
0
 62
7
100
AcDbSpline
 70
8
 71
3
 72
8
 73
4
 74
0
 40
0
 40
0
 40
0
 40
0
 40
1
 40
1
 40
1
 40
1
 10
864.686230
 20
62.057573
 30
0.0
 10
864.051311
 20
61.788459
 30
0.0
 10
863.335488
 20
61.782602
 30
0.0
 10
862.696250
 20
62.041290
 30
0.0
  0
SPLINE
  5
175
100
AcDbEntity
  8
0
 62
7
100
AcDbSpline
 70
8
 71
3
 72
8
 73
4
 74
0
 40
0
 40
0
 40
0
 40
0
 40
1
 40
1
 40
1
 40
1
 10
862.696250
 20
62.041290
 30
0.0
 10
862.057043
 20
62.300057
 30
0.0
 10
861.546819
 20
62.802161
 30
0.0
 10
861.277833
 20
63.437135
 30
0.0
  0
SPLINE
  5
176
100
AcDbEntity
  8
0
 62
7
100
AcDbSpline
 70
8
 71
3
 72
8
 73
4
 74
0
 40
0
 40
0
 40
0
 40
0
 40
1
 40
1
 40
1
 40
1
 10
861.277833
 20
63.437135
 30
0.0
 10
861.008846
 20
64.072109
 30
0.0
 10
861.003133
 20
64.787933
 30
0.0
 10
861.261950
 20
65.427120
 30
0.0
  0
LWPOLYLINE
  5
177
100
AcDbEntity
  8
0
 62
7
100
AcDbPolyline
 90
1
 70
1
 10
798.301660
 20
64.531210
 30
0.0
  0
LWPOLYLINE
  5
178
100
AcDbEntity
  8
0
 62
7
100
AcDbPolyline
 90
1
 70
1
 10
861.261950
 20
65.427120
 30
0.0
  0
SPLINE
  5
179
100
AcDbEntity
  8
0
 62
7
100
AcDbSpline
 70
8
 71
3
 72
8
 73
4
 74
0
 40
0
 40
0
 40
0
 40
0
 40
1
 40
1
 40
1
 40
1
 10
707.453680
 20
95.146630
 30
0.0
 10
707.936880
 20
95.146630
 30
0.0
 10
708.325880
 20
94.694360
 30
0.0
 10
708.325880
 20
94.132570
 30
0.0
  0
LWPOLYLINE
  5
17a
100
AcDbEntity
  8
0
 62
7
100
AcDbPolyline
 90
2
 70
0
 10
697.198080
 20
95.146630
 30
0.0
 10
707.453680
 20
95.146630
 30
0.0
  0
SPLINE
  5
17b
100
AcDbEntity
  8
0
 62
7
100
AcDbSpline
 70
8
 71
3
 72
8
 73
4
 74
0
 40
0
 40
0
 40
0
 40
0
 40
1
 40
1
 40
1
 40
1
 10
708.325880
 20
52.587130
 30
0.0
 10
708.325880
 20
52.025340
 30
0.0
 10
707.936880
 20
51.573060
 30
0.0
 10
707.453680
 20
51.573060
 30
0.0
  0
LWPOLYLINE
  5
17c
100
AcDbEntity
  8
0
 62
7
100
AcDbPolyline
 90
2
 70
0
 10
708.325880
 20
94.132570
 30
0.0
 10
708.325880
 20
52.587130
 30
0.0
  0
SPLINE
  5
17d
100
AcDbEntity
  8
0
 62
7
100
AcDbSpline
 70
8
 71
3
 72
8
 73
4
 74
0
 40
0
 40
0
 40
0
 40
0
 40
1
 40
1
 40
1
 40
1
 10
697.198080
 20
51.573060
 30
0.0
 10
696.714880
 20
51.573060
 30
0.0
 10
696.325880
 20
52.025340
 30
0.0
 10
696.325880
 20
52.587130
 30
0.0
  0
LWPOLYLINE
  5
17e
100
AcDbEntity
  8
0
 62
7
100
AcDbPolyline
 90
2
 70
0
 10
707.453680
 20
51.573060
 30
0.0
 10
697.198080
 20
51.573060
 30
0.0
  0
SPLINE
  5
17f
100
AcDbEntity
  8
0
 62
7
100
AcDbSpline
 70
8
 71
3
 72
8
 73
4
 74
0
 40
0
 40
0
 40
0
 40
0
 40
1
 40
1
 40
1
 40
1
 10
696.325880
 20
94.132570
 30
0.0
 10
696.325880
 20
94.694360
 30
0.0
 10
696.714880
 20
95.146630
 30
0.0
 10
697.198080
 20
95.146630
 30
0.0
  0
LWPOLYLINE
  5
180
100
AcDbEntity
  8
0
 62
7
100
AcDbPolyline
 90
2
 70
0
 10
696.325880
 20
52.587130
 30
0.0
 10
696.325880
 20
94.132570
 30
0.0
  0
LWPOLYLINE
  5
181
100
AcDbEntity
  8
0
 62
7
100
AcDbPolyline
 90
1
 70
1
 10
697.198080
 20
95.146630
 30
0.0
  0
SPLINE
  5
182
100
AcDbEntity
  8
0
 62
7
100
AcDbSpline
 70
8
 71
3
 72
8
 73
4
 74
0
 40
0
 40
0
 40
0
 40
0
 40
1
 40
1
 40
1
 40
1
 10
686.499750
 20
95.146630
 30
0.0
 10
686.982950
 20
95.146630
 30
0.0
 10
687.371950
 20
94.694360
 30
0.0
 10
687.371950
 20
94.132570
 30
0.0
  0
LWPOLYLINE
  5
183
100
AcDbEntity
  8
0
 62
7
100
AcDbPolyline
 90
2
 70
0
 10
676.244150
 20
95.146630
 30
0.0
 10
686.499750
 20
95.146630
 30
0.0
  0
SPLINE
  5
184
100
AcDbEntity
  8
0
 62
7
100
AcDbSpline
 70
8
 71
3
 72
8
 73
4
 74
0
 40
0
 40
0
 40
0
 40
0
 40
1
 40
1
 40
1
 40
1
 10
687.371950
 20
52.587130
 30
0.0
 10
687.371950
 20
52.025340
 30
0.0
 10
686.982950
 20
51.573060
 30
0.0
 10
686.499750
 20
51.573060
 30
0.0
  0
LWPOLYLINE
  5
185
100
AcDbEntity
  8
0
 62
7
100
AcDbPolyline
 90
2
 70
0
 10
687.371950
 20
94.132570
 30
0.0
 10
687.371950
 20
52.587130
 30
0.0
  0
SPLINE
  5
186
100
AcDbEntity
  8
0
 62
7
100
AcDbSpline
 70
8
 71
3
 72
8
 73
4
 74
0
 40
0
 40
0
 40
0
 40
0
 40
1
 40
1
 40
1
 40
1
 10
676.244150
 20
51.573060
 30
0.0
 10
675.760950
 20
51.573060
 30
0.0
 10
675.371950
 20
52.025340
 30
0.0
 10
675.371950
 20
52.587130
 30
0.0
  0
LWPOLYLINE
  5
187
100
AcDbEntity
  8
0
 62
7
100
AcDbPolyline
 90
2
 70
0
 10
686.499750
 20
51.573060
 30
0.0
 10
676.244150
 20
51.573060
 30
0.0
  0
SPLINE
  5
188
100
AcDbEntity
  8
0
 62
7
100
AcDbSpline
 70
8
 71
3
 72
8
 73
4
 74
0
 40
0
 40
0
 40
0
 40
0
 40
1
 40
1
 40
1
 40
1
 10
675.371950
 20
94.132570
 30
0.0
 10
675.371950
 20
94.694360
 30
0.0
 10
675.760950
 20
95.146630
 30
0.0
 10
676.244150
 20
95.146630
 30
0.0
  0
LWPOLYLINE
  5
189
100
AcDbEntity
  8
0
 62
7
100
AcDbPolyline
 90
2
 70
0
 10
675.371950
 20
52.587130
 30
0.0
 10
675.371950
 20
94.132570
 30
0.0
  0
LWPOLYLINE
  5
18a
100
AcDbEntity
  8
0
 62
7
100
AcDbPolyline
 90
1
 70
1
 10
676.244150
 20
95.146630
 30
0.0
  0
ENDSEC
  0
SECTION
  2
OBJECTS
  0
DICTIONARY
  5
C
330
0
100
AcDbDictionary
  3
ACAD_GROUP
350
D
  3
ACAD_MLINESTYLE
350
17
  0
DICTIONARY
  5
D
330
C
100
AcDbDictionary
  0
DICTIONARY
  5
1A
330
C
100
AcDbDictionary
  0
DICTIONARY
  5
17
330
C
100
AcDbDictionary
  3
STANDARD
350
18
  0
DICTIONARY
  5
19
330
C
100
AcDbDictionary
  0
ENDSEC
  0
EOF
