<?xml version="1.0" encoding="UTF-8" standalone="no"?>
<!-- Created with Inkscape (http://www.inkscape.org/) -->

<svg
   width="1000mm"
   height="300mm"
   viewBox="0 0 1000 300"
   version="1.1"
   id="svg5"
   xmlns="http://www.w3.org/2000/svg"
   xmlns:svg="http://www.w3.org/2000/svg">
  <defs
     id="defs2" />
  <g
     id="layer1">
    <path
       id="rect288"
       style="display:inline;fill:#008080;fill-opacity:0.599129;stroke-width:6.12331;stroke-dasharray:24.4933, 24.4933"
       d="m 36.362636,132.14025 v 9.45162 H 8.2056961 v 10.20352 c 108.5186539,0.68519 206.7241739,1.29242 214.4261939,1.29242 12.86228,0 2.30918,22.65546 14.64097,22.65546 11.97296,0 116.64987,0.0475 128.44436,0 4.4516,-0.0178 6.94358,-5.76238 6.82025,-8.00002 h -95.07172 c -7.09363,1e-5 -8.71781,-2.41821 -8.71781,-9.08007 0,-3.35255 0.0579,-6.54885 0.0579,-8.81496 h 225.66684 c 0,0 25.79517,89.55946 38.31394,134.20162 2.38393,8.50129 11.14556,13.42714 19.64687,11.04326 l 23.0172,-6.45491 c 8.50132,-2.38391 13.42765,-11.14919 11.04377,-19.65048 0,0 -65.06896,-95.39411 -35.14308,-125.31999 4.60065,-4.60065 -8.56464,-11.79925 -15.66984,-11.63805 v -5.2e-4 c -0.51559,0.0122 -1.03329,0.0481 -1.5534,0.1111 z m 219.902864,6.41357 c 1.43582,9e-5 2.59975,1.16402 2.59984,2.59984 2e-4,1.43601 -1.16382,2.60027 -2.59984,2.60036 -1.43602,-9e-5 -2.60004,-1.16435 -2.59984,-2.60036 9e-5,-1.43582 1.16402,-2.59975 2.59984,-2.59984 z m 116.64766,0 c 1.43582,9e-5 2.59975,1.16402 2.59984,2.59984 2e-4,1.43601 -1.16382,2.60027 -2.59984,2.60036 -1.43622,2e-4 -2.60056,-1.16414 -2.60036,-2.60036 9e-5,-1.43602 1.16434,-2.60004 2.60036,-2.59984 z" />
    <path
       id="path2055"
       style="display:inline;fill:#008080;fill-opacity:0.599129;stroke-width:6.12331;stroke-dasharray:24.4933, 24.4933"
       d="m 197.40449,168.63415 c -3.01684,-0.0113 -6.03374,2.90442 -6.03374,5.66271 0,2.51911 -2.88892,4.41006 -5.00021,4.41006 h -76.62375 c -2.33007,0 -5.1836,1.93711 -6.4425,3.65766 -1.27779,1.74635 -1.65869,3.48417 -1.83864,6.52518 1.22419,4.56878 13.71295,28.7507 7.61658,28.7507 -40.523894,0 -78.826364,-7.50754 -78.841694,-28.7507 h -1.72806 c 0.01,25.64801 36.07878,46.4383 80.569754,46.43903 4.92214,3e-5 22.93814,-2.04156 22.93814,-38.91442 0,0 161.61876,1.04356 304.81033,1.94768 v -10.20351 h 28.15694 v -9.45162 h -256.5492 c -2.49472,0 -4.99969,-1.89397 -4.99969,-4.41006 0,-2.77719 -3.01741,-5.65143 -6.03426,-5.66271 z m -0.0661,3.17759 c 1.43601,8e-5 2.60004,1.16434 2.59984,2.60035 -9e-5,1.43582 -1.16403,2.59976 -2.59984,2.59984 -1.43602,2e-4 -2.60027,-1.16382 -2.60036,-2.59984 -2e-4,-1.43622 1.16414,-2.60055 2.60036,-2.60035 z m -86.73114,13.19919 c 1.43581,9e-5 2.59975,1.16403 2.59984,2.59984 -9e-5,1.43581 -1.16403,2.59976 -2.59984,2.59984 -1.43602,2e-4 -2.60027,-1.16382 -2.60036,-2.59984 8e-5,-1.43601 1.16434,-2.60004 2.60036,-2.59984 z" />
  </g>
  <g
     id="layer3"
     style="display:inline">
    <path
       id="path18345"
       style="display:inline;vector-effect:non-scaling-stroke;fill:#00ff00;fill-opacity:0.599129;stroke:none;stroke-width:1.62012;stroke-dasharray:none;stroke-opacity:1;-inkscape-stroke:hairline"
       d="m 494.00567,150.15156 c 0,0 -183.05667,0.0248 -189.06804,0.0248 0,3.40218 -0.0186,5.03368 -0.0186,8.44289 0,6.46142 2.17406,8.93899 8.30751,8.93899 36.34683,0 130.82585,0.0469 137.71304,0 7.06801,0 11.52262,-0.87023 16.75143,-0.87023 9.41279,-5.4e-4 17.04395,7.63012 17.0434,17.04289 -0.004,5.31998 -2.4929,10.33276 -6.72775,13.55265 8.55479,1.03797 14.98852,8.29874 14.98926,16.91628 -0.002,5.1093 -2.2974,9.94795 -6.25233,13.18267 8.10681,1.47124 13.99997,8.53128 13.99863,16.77054 -0.002,4.65424 -1.90798,9.10498 -5.27461,12.31863 8.50354,1.09154 14.87221,8.33055 14.87196,16.90388 -6.1e-4,5.20148 -2.37652,10.11784 -6.4518,13.35009 0,0 0.005,0.33812 0.1235,0.42736 7.82712,5.89876 29.40286,0.0636 29.40286,0.0636 z m -153.23251,5.76399 c 1.43582,8e-5 2.59976,1.16402 2.59985,2.59984 2e-4,1.43602 -1.16383,2.60027 -2.59985,2.60036 -1.43622,1.9e-4 -2.60055,-1.16414 -2.60035,-2.60036 9e-5,-1.43602 1.16433,-2.60004 2.60035,-2.59984 z m 114.77646,0 c 1.43582,9e-5 2.59975,1.16402 2.59984,2.59984 -9e-5,1.43582 -1.16402,2.59975 -2.59984,2.59984 -1.43582,-9e-5 -2.59975,-1.16402 -2.59984,-2.59984 9e-5,-1.43582 1.16402,-2.59975 2.59984,-2.59984 z m -144.09508,2.90886 c 1.43582,9e-5 2.59975,1.16403 2.59984,2.59985 -9e-5,1.43581 -1.16402,2.59975 -2.59984,2.59984 -1.43602,2e-4 -2.60027,-1.16383 -2.60036,-2.59984 9e-5,-1.43602 1.16434,-2.60004 2.60036,-2.59985 z" />
    <path
       id="path18628"
       style="display:inline;fill:#00ff00;fill-opacity:0.599129;stroke-width:6.50908;stroke-dasharray:26.0362, 26.0362"
       d="m 328.96,254.78138 c -0.0296,0.0737 -0.0588,0.14769 -0.0879,0.22141 -2.91683,7.3843 -3.47697,14.76572 -1.2079,21.61442 l 0.004,0.0124 1.64056,-0.54239 -0.004,-0.0124 c -6.68571,-20.17394 27.31726,-39.35306 65.79169,-52.10312 2.89026,-0.95778 -4.07494,8.71307 1.42433,27.50043 a 9.113213,9.113213 0 0 0 0.28889,1.12095 9.113213,9.113213 0 0 0 0.29863,0.76757 c 0.024,0.0744 0.045,0.14594 0.0692,0.22068 0.003,-0.001 0.0234,-0.008 0.0276,-0.009 a 9.113213,9.113213 0 0 0 11.12127,4.80576 9.113213,9.113213 0 0 0 0.12814,-0.0563 l 58.79752,-0.85873 5.3e-4,-0.0172 a 8.6188699,8.6188699 0 0 0 3.28859,-0.42 8.6188699,8.6188699 0 0 0 5.45681,-10.89791 8.6188699,8.6188699 0 0 0 -8.99813,-5.86138 l -10e-4,-0.0136 -54.33732,0.79357 c -4.43563,-24.36213 8.91465,-44.48473 -23.13088,-33.86526 -30.23937,10.02146 -53.02597,28.80278 -60.57063,47.60007 z m 69.85651,-41.37527 a 2.9934187,2.9934187 0 0 1 3.89762,-1.65197 2.9934187,2.9934187 0 0 1 1.65177,3.8981 2.9934187,2.9934187 0 0 1 -3.8981,1.65177 2.9934187,2.9934187 0 0 1 -1.65129,-3.8979 z m 3.80693,35.43564 a 2.5999999,2.5999999 0 0 1 3.38535,-1.4345 2.5999999,2.5999999 0 0 1 1.4345,3.38535 2.5999999,2.5999999 0 0 1 -3.38554,1.43497 2.5999999,2.5999999 0 0 1 -1.43431,-3.38582 z m 62.96029,-0.89591 a 2.5999999,2.5999999 0 0 1 3.38534,-1.4345 2.5999999,2.5999999 0 0 1 1.4345,3.38535 2.5999999,2.5999999 0 0 1 -3.38554,1.43498 2.5999999,2.5999999 0 0 1 -1.4343,-3.38583 z" />
    <path
       id="rect2112"
       style="vector-effect:non-scaling-stroke;fill:#00ff00;fill-opacity:0.599129;stroke-width:0.248829;-inkscape-stroke:hairline"
       d="m 275.61551,216.72345 h 10.2556 c 0.4832,0 0.8722,0.45227 0.8722,1.01406 v 41.54544 c 0,0.56179 -0.389,1.01407 -0.8722,1.01407 h -10.2556 c -0.4832,0 -0.8722,-0.45228 -0.8722,-1.01407 v -41.54544 c 0,-0.56179 0.389,-1.01406 0.8722,-1.01406 z" />
    <path
       id="path3103"
       style="vector-effect:non-scaling-stroke;fill:#00ff00;fill-opacity:0.599129;stroke-width:0.248829;-inkscape-stroke:hairline"
       d="m 254.66158,216.72345 h 10.2556 c 0.4832,0 0.8722,0.45227 0.8722,1.01406 v 41.54544 c 0,0.56179 -0.389,1.01407 -0.8722,1.01407 h -10.2556 c -0.4832,0 -0.8722,-0.45228 -0.8722,-1.01407 v -41.54544 c 0,-0.56179 0.389,-1.01406 0.8722,-1.01406 z" />
  </g>
</svg>
