<?xml version="1.0" encoding="UTF-8" standalone="no"?>
<!-- Created with Inkscape (http://www.inkscape.org/) -->

<svg
   width="1000mm"
   height="300mm"
   viewBox="0 0 1000 300"
   version="1.1"
   id="svg5"
   sodipodi:docname="litter-picker-v1.0.0.svg"
   inkscape:version="1.2.2 (732a01da63, 2022-12-09)"
   xmlns:inkscape="http://www.inkscape.org/namespaces/inkscape"
   xmlns:sodipodi="http://sodipodi.sourceforge.net/DTD/sodipodi-0.dtd"
   xmlns="http://www.w3.org/2000/svg"
   xmlns:svg="http://www.w3.org/2000/svg">
  <sodipodi:namedview
     id="namedview7"
     pagecolor="#ffffff"
     bordercolor="#000000"
     borderopacity="0.25"
     inkscape:showpageshadow="2"
     inkscape:pageopacity="0.0"
     inkscape:pagecheckerboard="0"
     inkscape:deskcolor="#d1d1d1"
     inkscape:document-units="mm"
     showgrid="false"
     inkscape:zoom="0.35355339"
     inkscape:cx="1600.8897"
     inkscape:cy="-192.33304"
     inkscape:window-width="2560"
     inkscape:window-height="1334"
     inkscape:window-x="-11"
     inkscape:window-y="-11"
     inkscape:window-maximized="1"
     inkscape:current-layer="layer1"
     showguides="true" />
  <defs
     id="defs2" />
  <g
     inkscape:label="Layer 1"
     inkscape:groupmode="layer"
     id="layer1">
    <path
       id="rect288"
       style="display:inline;fill:#000000;fill-opacity:0.599129;stroke-width:6.12331;stroke-dasharray:24.4933, 24.4933"
       d="m 176.23782,57.509151 c -3.01684,-0.01128 -6.03382,2.90442 -6.03382,5.662704 0,2.519119 -2.88871,4.410066 -5,4.410066 H 88.580123 c -2.330072,0 -5.183601,1.937106 -6.442501,3.657658 -1.277797,1.746356 -1.658687,3.484165 -1.838647,6.525183 1.224201,4.568784 13.712961,28.750698 7.616589,28.750698 -40.523932,0 -78.8263666,-7.507522 -78.8416993,-28.750698 H 7.3458049 c 0.0098,25.648038 36.0787441,46.438298 80.5697591,46.439028 4.922145,3e-5 22.938136,-2.04152 22.938136,-38.914422 0,0 501.37157,3.240112 519.23652,3.240112 12.86229,0 2.30917,22.65552 14.64097,22.65552 11.97297,0 116.64986,0.0475 128.44436,0 4.45161,-0.0178 6.94358,-5.76243 6.82025,-8.00008 l -95.0718,8e-5 c -7.09364,1e-5 -8.71773,-2.41828 -8.71773,-9.08015 0,-3.352559 0.0579,-6.548733 0.0579,-8.81485 l 225.66684,-1.16e-4 c 0,0 25.79515,89.559416 38.31394,134.201626 2.38393,8.5013 11.14555,13.42715 19.64687,11.04326 l 23.0172,-6.45491 c 8.50133,-2.38391 13.42766,-11.14918 11.04377,-19.65048 0,0 -65.06901,-95.39408 -35.1431,-125.319997 4.60065,-4.600653 -8.56463,-11.799249 -15.66984,-11.638049 v -5.17e-4 c -0.51559,0.0122 -1.03329,0.04807 -1.5534,0.111104 H 187.272 c -2.49473,0 -5,-1.893973 -5,-4.410066 0,-2.777188 -3.01733,-5.651428 -6.03418,-5.662704 z m -0.0661,3.177584 c 1.43602,8.8e-5 2.60004,1.16434 2.59984,2.600358 -9e-5,1.435816 -1.16402,2.599753 -2.59984,2.599841 -1.43602,1.99e-4 -2.60027,-1.163822 -2.60036,-2.599841 -2e-4,-1.436221 1.16414,-2.600557 2.60036,-2.600358 z M 89.440535,73.885929 c 1.435816,8.7e-5 2.599755,1.164026 2.599842,2.599842 -8.8e-5,1.435815 -1.164026,2.599754 -2.599842,2.599841 -1.436016,1.98e-4 -2.60027,-1.163825 -2.600358,-2.599841 8.7e-5,-1.436017 1.164342,-2.60004 2.600358,-2.599842 z m 574.283295,0.109554 c 1.43582,8.9e-5 2.59975,1.164027 2.59984,2.599842 2e-4,1.436016 -1.16382,2.60027 -2.59984,2.600358 -1.43602,-8.8e-5 -2.60004,-1.164342 -2.59984,-2.600358 9e-5,-1.435815 1.16402,-2.599753 2.59984,-2.599842 z m 116.64766,0 c 1.43582,8.9e-5 2.59975,1.164027 2.59984,2.599842 2e-4,1.436016 -1.16382,2.60027 -2.59984,2.600358 -1.43622,1.99e-4 -2.60056,-1.164139 -2.60036,-2.600358 9e-5,-1.436018 1.16434,-2.600041 2.60036,-2.599842 z"
       sodipodi:nodetypes="ssssscsccccssscssccscccscccssscccccccccccscscsssss" />
  </g>
  <g
     inkscape:groupmode="layer"
     id="layer2"
     inkscape:label="Open"
     style="display:none">
    <path
       id="path454"
       style="display:inline;fill:#ff0000;fill-opacity:0.599129;stroke-width:6.50908;stroke-dasharray:26.0362, 26.0362"
       inkscape:transform-center-x="5.6609146"
       inkscape:transform-center-y="-1.1561056"
       d="m 56.297339,7.8320801 c -0.07943,2.311e-4 -0.158975,8.841e-4 -0.238228,0.00155 -7.939235,0.066729 -14.991591,2.3169119 -20.488672,6.9897549 l -0.0098,0.0088 1.118278,1.317232 0.0098,-0.0088 C 52.880569,2.3743456 83.416069,26.697657 109.66979,57.577881 111.642,59.897655 100.06435,57.069636 84.712659,69.21593 a 9.113213,9.113213 0 0 0 -0.930693,0.68833 9.113213,9.113213 0 0 0 -0.599446,0.564824 c -0.06001,0.0502 -0.118459,0.09639 -0.178284,0.147277 0.0024,0.002 0.01615,0.01862 0.0186,0.02222 a 9.113213,9.113213 0 0 0 -0.282153,12.111923 9.113213,9.113213 0 0 0 0.100252,0.09767 l 22.855975,54.180156 0.016,-0.006 a 8.6188699,8.6188699 0 0 0 1.62315,2.89078 8.6188699,8.6188699 0 0 0 12.14913,0.96945 8.6188699,8.6188699 0 0 0 2.05724,-10.53993 l 0.0124,-0.006 -21.12222,-50.070327 C 121.35071,67.014136 145.01218,71.839472 123.14545,46.119149 102.51068,21.848676 76.55214,7.7731323 56.297339,7.8320801 Z M 120.85929,57.06215 a 2.9934187,2.9934187 0 0 1 2.99362,2.993099 2.9934187,2.9934187 0 0 1 -2.99362,2.993616 2.9934187,2.9934187 0 0 1 -2.99362,-2.993616 2.9934187,2.9934187 0 0 1 2.99362,-2.993099 z M 89.440535,73.885929 a 2.5999999,2.5999999 0 0 1 2.599842,2.599842 2.5999999,2.5999999 0 0 1 -2.599842,2.599841 2.5999999,2.5999999 0 0 1 -2.600358,-2.599841 2.5999999,2.5999999 0 0 1 2.600358,-2.599842 z m 24.452255,58.024881 a 2.5999999,2.5999999 0 0 1 2.59984,2.59984 2.5999999,2.5999999 0 0 1 -2.59984,2.59984 2.5999999,2.5999999 0 0 1 -2.60036,-2.59984 2.5999999,2.5999999 0 0 1 2.60036,-2.59984 z" />
    <path
       id="path15170"
       style="vector-effect:non-scaling-stroke;fill:#ff0000;fill-opacity:0.599129;stroke:none;stroke-width:1.62012;stroke-dasharray:none;stroke-opacity:1;-inkscape-stroke:hairline"
       d="M 865.44837,85.475 H 676.38033 c 0,3.402182 -0.0186,5.176718 -0.0186,8.58593 0,6.46142 1.38031,8.93899 8.30751,8.93899 36.34683,0 130.82585,0.0469 137.71304,0 7.06801,0 11.52262,-0.87023 16.75143,-0.87023 9.41279,-5.4e-4 17.04395,7.63012 17.0434,17.04289 -0.004,5.31998 -2.4929,10.33276 -6.72775,13.55265 8.55479,1.03797 14.98852,8.29874 14.98926,16.91628 -0.002,5.1093 -2.2974,9.94795 -6.25233,13.18267 8.10681,1.47124 13.99997,8.53128 13.99863,16.77054 -0.002,4.65424 -1.90798,9.10498 -5.27461,12.31863 8.50354,1.09154 14.87221,8.33055 14.87196,16.90388 -6.1e-4,5.20148 -2.37652,10.11784 -6.4518,13.35009 0,0 0.005,0.33812 0.1235,0.42736 7.82712,5.89876 29.40286,0.0636 29.40286,0.0636 z m -153.23251,5.882214 c 1.43582,8.3e-5 2.59976,1.164022 2.59985,2.599842 2e-4,1.436022 -1.16383,2.600275 -2.59985,2.600358 -1.43622,1.93e-4 -2.60055,-1.164141 -2.60035,-2.600358 9e-5,-1.436015 1.16433,-2.600035 2.60035,-2.599842 z m 114.77646,0 c 1.43582,8.8e-5 2.59975,1.164026 2.59984,2.599842 -9e-5,1.435816 -1.16402,2.599753 -2.59984,2.599841 -1.43582,-8.8e-5 -2.59975,-1.164025 -2.59984,-2.599841 9e-5,-1.435816 1.16402,-2.599754 2.59984,-2.599842 z m -144.09508,2.908867 c 1.43582,8.8e-5 2.59975,1.164025 2.59984,2.599841 -9e-5,1.435816 -1.16402,2.599753 -2.59984,2.599841 -1.43602,1.99e-4 -2.60027,-1.163822 -2.60036,-2.599841 9e-5,-1.436019 1.16434,-2.60004 2.60036,-2.599841 z"
       sodipodi:nodetypes="ccssccccccccccsccssssscccccscscs" />
  </g>
  <g
     inkscape:groupmode="layer"
     id="layer3"
     inkscape:label="Closed"
     style="display:inline">
    <path
       id="path18345"
       style="display:inline;vector-effect:non-scaling-stroke;fill:#00ff00;fill-opacity:0.599129;stroke:none;stroke-width:1.62012;stroke-dasharray:none;stroke-opacity:1;-inkscape-stroke:hairline"
       d="m 901.464,85.593225 c 0,0 -183.05667,0.02481 -189.06804,0.02481 0,3.402182 -0.0186,5.033683 -0.0186,8.442895 0,6.46142 2.17406,8.93899 8.30751,8.93899 36.34683,0 130.82585,0.0469 137.71304,0 7.06801,0 11.52262,-0.87023 16.75143,-0.87023 9.41279,-5.4e-4 17.04395,7.63012 17.0434,17.04289 -0.004,5.31998 -2.4929,10.33276 -6.72775,13.55265 8.55479,1.03797 14.98852,8.29874 14.98926,16.91628 -0.002,5.1093 -2.2974,9.94795 -6.25233,13.18267 8.10681,1.47124 13.99997,8.53128 13.99863,16.77054 -0.002,4.65424 -1.90798,9.10498 -5.27461,12.31863 8.50354,1.09154 14.87221,8.33055 14.87196,16.90388 -6.1e-4,5.20148 -2.37652,10.11784 -6.4518,13.35009 0,0 0.005,0.33812 0.1235,0.42736 7.82712,5.89876 29.40286,0.0636 29.40286,0.0636 z m -153.23251,5.763989 c 1.43582,8.3e-5 2.59976,1.164022 2.59985,2.599842 2e-4,1.436022 -1.16383,2.600275 -2.59985,2.600358 -1.43622,1.93e-4 -2.60055,-1.164141 -2.60035,-2.600358 9e-5,-1.436015 1.16433,-2.600035 2.60035,-2.599842 z m 114.77646,0 c 1.43582,8.8e-5 2.59975,1.164026 2.59984,2.599842 -9e-5,1.435816 -1.16402,2.599753 -2.59984,2.599841 -1.43582,-8.8e-5 -2.59975,-1.164025 -2.59984,-2.599841 9e-5,-1.435816 1.16402,-2.599754 2.59984,-2.599842 z m -144.09508,2.908867 c 1.43582,8.8e-5 2.59975,1.164025 2.59984,2.599841 -9e-5,1.435816 -1.16402,2.599753 -2.59984,2.599841 -1.43602,1.99e-4 -2.60027,-1.163822 -2.60036,-2.599841 9e-5,-1.436019 1.16434,-2.60004 2.60036,-2.599841 z"
       sodipodi:nodetypes="ccssccccccccccsccssssscccccscscs" />
    <path
       id="path18628"
       style="display:inline;fill:#00ff00;fill-opacity:0.599129;stroke-width:6.50908;stroke-dasharray:26.0362, 26.0362"
       inkscape:transform-center-x="6.7275808"
       inkscape:transform-center-y="-8.8800995"
       d="m 15.7056,56.840738 c -0.0516,0.06038 -0.102954,0.12114 -0.154105,0.181677 -5.124297,6.064444 -8.0146297,12.879503 -8.0539175,20.094197 l 2.838e-4,0.01317 1.7278702,0.01051 -2.74e-4,-0.01317 C 9.339471,55.874518 47.689222,48.571309 88.220674,48.789197 c 3.044782,0.01638 -6.646401,6.953283 -7.441353,26.512805 a 9.113213,9.113213 0 0 0 -0.08462,1.154481 9.113213,9.113213 0 0 0 0.03762,0.822768 c -0.001,0.07823 -0.0041,0.152665 -0.0045,0.231204 0.003,-4.94e-4 0.02465,-1.27e-4 0.02897,4.12e-4 a 9.113213,9.113213 0 0 0 9.001516,8.108699 9.113213,9.113213 0 0 0 0.139416,-0.01237 l 55.986927,17.981894 0.006,-0.0161 a 8.6188699,8.6188699 0 0 0 3.25029,0.65329 8.6188699,8.6188699 0 0 0 8.65419,-8.581749 8.6188699,8.6188699 0 0 0 -6.65232,-8.430239 l 0.003,-0.01335 L 99.405873,70.583096 C 102.99072,46.081315 122.07302,31.282174 88.314235,31.10058 56.457989,30.929724 28.863256,41.4415 15.7056,56.840738 Z M 95.123025,39.967155 a 2.9934187,2.9934187 0 0 1 4.221187,-0.319355 2.9934187,2.9934187 0 0 1 0.319012,4.221578 2.9934187,2.9934187 0 0 1 -4.221578,0.319019 2.9934187,2.9934187 0 0 1 -0.318621,-4.221242 z m -7.720379,34.793296 a 2.5999999,2.5999999 0 0 1 3.666278,-0.277053 2.5999999,2.5999999 0 0 1 0.277052,3.666279 2.5999999,2.5999999 0 0 1 -3.666615,0.277444 2.5999999,2.5999999 0 0 1 -0.276715,-3.66667 z m 59.943164,19.277347 a 2.5999999,2.5999999 0 0 1 3.66628,-0.277052 2.5999999,2.5999999 0 0 1 0.27705,3.666276 2.5999999,2.5999999 0 0 1 -3.66662,0.277445 2.5999999,2.5999999 0 0 1 -0.27671,-3.666669 z" />
  </g>
</svg>
