<?xml version="1.0" encoding="UTF-8" standalone="no"?>
<!-- Created with Inkscape (http://www.inkscape.org/) -->

<svg
   width="1000mm"
   height="300mm"
   viewBox="0 0 1000 300"
   version="1.1"
   id="svg5"
   sodipodi:docname="litter-picker.svg"
   inkscape:version="1.2.2 (732a01da63, 2022-12-09)"
   xmlns:inkscape="http://www.inkscape.org/namespaces/inkscape"
   xmlns:sodipodi="http://sodipodi.sourceforge.net/DTD/sodipodi-0.dtd"
   xmlns="http://www.w3.org/2000/svg"
   xmlns:svg="http://www.w3.org/2000/svg">
  <sodipodi:namedview
     id="namedview7"
     pagecolor="#ffffff"
     bordercolor="#000000"
     borderopacity="0.25"
     inkscape:showpageshadow="2"
     inkscape:pageopacity="0.0"
     inkscape:pagecheckerboard="0"
     inkscape:deskcolor="#d1d1d1"
     inkscape:document-units="mm"
     showgrid="false"
     inkscape:zoom="1.3193493"
     inkscape:cx="2560.732"
     inkscape:cy="297.49514"
     inkscape:window-width="2560"
     inkscape:window-height="1334"
     inkscape:window-x="-11"
     inkscape:window-y="-11"
     inkscape:window-maximized="1"
     inkscape:current-layer="layer1"
     showguides="true">
    <sodipodi:guide
       position="186.00208,221.81562"
       orientation="1,0"
       id="guide1969"
       inkscape:locked="false" />
    <sodipodi:guide
       position="277.94479,239.27812"
       orientation="1,0"
       id="guide626"
       inkscape:locked="false" />
    <sodipodi:guide
       position="573.35208,223.8"
       orientation="1,0"
       id="guide628"
       inkscape:locked="false" />
    <sodipodi:guide
       position="730.50198,190.88202"
       orientation="1,0"
       id="guide11269"
       inkscape:locked="false" />
    <sodipodi:guide
       position="269.55187,222.56619"
       orientation="0,-1"
       id="guide11326"
       inkscape:locked="false" />
  </sodipodi:namedview>
  <defs
     id="defs2" />
  <g
     inkscape:groupmode="layer"
     id="layer3"
     inkscape:label="Closed"
     style="display:inline">
    <g
       id="g11406"
       transform="translate(0,-5.8588815)">
      <path
         id="path18345"
         style="display:inline;vector-effect:non-scaling-stroke;fill:#00ff00;fill-opacity:0.599129;stroke:none;stroke-width:1.21509;stroke-dasharray:none;stroke-opacity:1;-inkscape-stroke:hairline"
         d="m 661.89105,96.754374 v 0.01124 c -0.0425,-0.0043 -0.0852,-0.0074 -0.12791,-0.0093 -1.14139,0.0018 -2.10063,0.857889 -2.23164,1.991738 -0.004,1.493448 -0.0112,2.761438 -0.0112,4.576848 0,4.84606 1.63054,6.70424 6.23062,6.70424 27.2601,0 98.1194,0.0352 103.28478,0 5.30101,0 8.64198,-0.65267 12.56358,-0.65267 7.05959,-4.1e-4 12.78297,5.7226 12.78255,12.78217 -0.003,3.98998 -1.86968,7.74958 -5.04581,10.16449 6.41609,0.77848 11.24139,6.22406 11.24195,12.68721 -0.002,3.83198 -1.72305,7.46096 -4.68925,9.887 6.0801,1.10343 10.49998,6.39847 10.49897,12.57791 -10e-4,3.49068 -1.43099,6.82873 -3.95596,9.23897 6.37765,0.81866 11.15416,6.24792 11.15397,12.67791 -4.5e-4,3.9011 -1.78239,7.58838 -4.83885,10.01257 0,0 0.004,0.25359 0.0926,0.32052 5.87033,4.42407 22.05214,0.0477 22.05214,0.0477 L 801.33525,96.754374 Z"
         sodipodi:nodetypes="ccccsscccccccccccccc" />
      <circle
         style="vector-effect:non-scaling-stroke;fill:#000000;fill-opacity:0.441237;stroke-width:0.264582;-inkscape-stroke:hairline"
         id="path575"
         cx="773.25842"
         cy="103.30772"
         r="3" />
      <circle
         style="vector-effect:non-scaling-stroke;fill:#000000;fill-opacity:0.441237;stroke-width:0.264582;-inkscape-stroke:hairline"
         id="circle1445"
         cx="665.36139"
         cy="103.07334"
         r="3" />
    </g>
    <g
       id="g11386"
       transform="translate(0,2.836075)">
      <path
         id="path18628"
         style="display:inline;fill:#00ff00;fill-opacity:0.599129;stroke-width:4.88181;stroke-dasharray:19.5271, 19.5271"
         inkscape:transform-center-x="5.0452872"
         inkscape:transform-center-y="-6.6600999"
         d="m 137.01657,75.409762 c -0.0387,0.04528 -0.0772,0.09086 -0.11558,0.136258 -3.84323,4.548333 -6.01097,9.659627 -6.04044,15.070648 l 2.1e-4,0.0099 1.2959,0.0079 -2e-4,-0.0099 c 0.0855,-15.939453 28.84782,-21.41686 59.24641,-21.253444 2.28359,0.01229 -4.9848,5.214963 -5.58101,19.884604 -0.0395,0.286984 -0.0607,0.576188 -0.0635,0.865861 1e-4,0.206012 0.01,0.411914 0.0282,0.617076 -7.5e-4,0.05867 -0.003,0.114499 -0.003,0.173403 0.002,-3.71e-4 0.0185,-9.5e-5 0.0217,3.09e-4 0.38211,3.446103 3.28398,6.060148 6.75114,6.081524 0.0349,-0.0028 0.0697,-0.0059 0.10456,-0.0093 l 41.99019,13.486419 0.005,-0.0121 c 0.77321,0.31954 1.6011,0.48594 2.43772,0.48997 3.56954,0.0146 6.4753,-2.86678 6.49064,-6.43631 0.0135,-3.01271 -2.05596,-5.635297 -4.98924,-6.322677 l 0.002,-0.01001 -38.80495,-12.463384 c 2.68864,-18.376336 17.00036,-29.475692 -8.31873,-29.611887 -23.89218,-0.128142 -44.58823,7.75569 -54.45647,19.305118 z"
         sodipodi:nodetypes="scccccscccccccccccccccs" />
      <circle
         style="vector-effect:non-scaling-stroke;fill:#000000;fill-opacity:0.441237;stroke-width:0.264582;-inkscape-stroke:hairline"
         id="circle1453"
         cx="192.45323"
         cy="90.315201"
         r="3" />
      <circle
         style="vector-effect:non-scaling-stroke;fill:#000000;fill-opacity:0.441237;stroke-width:0.264582;-inkscape-stroke:hairline"
         id="circle1455"
         cx="236.91196"
         cy="104.49933"
         r="3" />
      <circle
         style="vector-effect:non-scaling-stroke;fill:#000000;fill-opacity:0.441237;stroke-width:0.264582;-inkscape-stroke:hairline"
         id="circle1971"
         cx="199.05862"
         cy="64.961517"
         r="3" />
    </g>
  </g>
  <g
     inkscape:label="Body"
     inkscape:groupmode="layer"
     id="layer1"
     style="display:inline">
    <circle
       style="display:inline;vector-effect:non-scaling-stroke;fill:#000000;fill-opacity:0.441237;stroke-width:0.264582;-inkscape-stroke:hairline"
       id="circle11264"
       cx="192.45323"
       cy="93.151276"
       r="3" />
    <path
       style="display:inline;fill:#008080;fill-opacity:0.599129;stroke-width:4.59248;stroke-dasharray:18.37, 18.37"
       d="m 832.59225,77.523438 c -0.38669,0.0091 -0.77496,0.03605 -1.16505,0.08333 H 555.18012 v 6.248069 13.49995 6.076773 c 0,10.68833 3.26414,14.4999 10.14164,14.4999 9.6467,0 34.21516,-0.47867 43.464,-0.47867 8.97971,0 106.93428,0.0356 115.78014,0 3.33871,-0.0134 5.21079,-4.32179 5.11829,-6.00001 v -7.14375 h -85.75401 c -5.32022,0 -6.53836,-1.81367 -6.53836,-6.810063 0,-2.51442 0.0434,-4.911642 0.0434,-6.611226 H 801.6856 c 0,0 19.3464,67.169649 28.73546,100.651229 1.78795,6.37596 8.35918,10.07035 14.73515,8.28245 l 17.2629,-4.84119 c 6.37598,-1.78793 10.07073,-8.3619 8.28283,-14.73786 0,0 -48.8017,-71.5456 -26.35731,-93.990005 3.45049,-3.450482 -6.42349,-8.849437 -11.75238,-8.728537 z"
       id="path2148"
       sodipodi:nodetypes="ccccccsssccssccscccscc" />
    <path
       style="display:inline;fill:#008080;fill-opacity:0.599129;stroke-width:4.59248;stroke-dasharray:18.37, 18.37"
       d="m 284.7625,77.68907 c -3.46708,0 -5.58365,2.584632 -5.58365,5.3051 0,2.591228 -2.16669,3.307549 -3.75016,3.307549 h -83.75623 c -1.74755,0 -3.8877,1.452833 -4.83188,2.743244 -0.95834,1.309765 -1.24401,2.613128 -1.37898,4.893887 0.91815,3.426582 10.28471,21.56305 5.71244,21.56305 -30.39289,0 -59.11978,-5.63067 -59.13128,-21.56305 h -1.29604 c 0.007,19.23601 27.05912,34.82875 60.42732,34.8293 3.6916,2e-5 17.2036,-1.5312 17.2036,-29.185845 0,0 12.37045,0.103045 37.80661,0.266648 6.41928,0.0413 2.9084,12.112767 14.97815,12.190377 17.02442,0.10945 38.10081,0.17219 60.37772,0.21742 v -6.20698 c 0,-6.34345 0,-7.686029 0,-13.499982 v -6.248069 l -0.005,-3.686897 c 0,-2.497729 -0.58167,-4.925752 -7.57359,-4.925752 -8.70366,0 -25.81844,0.08894 -29.19924,0 z"
       id="rect288"
       sodipodi:nodetypes="csssscsccscsscccccscc" />
    <circle
       style="display:inline;vector-effect:non-scaling-stroke;fill:#000000;fill-opacity:0.441237;stroke-width:0.264582;-inkscape-stroke:hairline"
       id="circle1447"
       cx="699.24799"
       cy="84.397102"
       r="3" />
    <circle
       style="display:inline;vector-effect:non-scaling-stroke;fill:#000000;fill-opacity:0.441237;stroke-width:0.264582;-inkscape-stroke:hairline"
       id="circle1451"
       cx="284.75101"
       cy="83.261093"
       r="3" />
    <rect
       style="vector-effect:non-scaling-stroke;fill:#ff7f2a;fill-opacity:0.6;stroke:none;stroke-width:0.264583;stroke-opacity:1;-inkscape-stroke:hairline"
       id="rect11544"
       width="314.37891"
       height="18"
       x="294.24277"
       y="85.933067"
       rx="3"
       ry="3" />
    <rect
       style="display:inline;vector-effect:non-scaling-stroke;fill:#007f7f;fill-opacity:0.6;stroke-width:0.24074;-inkscape-stroke:hairline"
       id="rect1915"
       width="18.023775"
       height="39.787506"
       x="671.5271"
       y="77.645111" />
  </g>
  <g
     inkscape:groupmode="layer"
     id="layer2"
     inkscape:label="Open"
     style="display:inline">
    <g
       id="g11396"
       style="display:inline"
       transform="rotate(40.906089,188.62508,91.74281)">
      <path
         id="path11388"
         style="display:inline;fill:#ff2a2a;fill-opacity:0.599129;stroke-width:4.88181;stroke-dasharray:19.5271, 19.5271"
         inkscape:transform-center-x="5.0452872"
         inkscape:transform-center-y="-6.6600999"
         d="m 137.01657,75.409762 c -0.0387,0.04528 -0.0772,0.09086 -0.11558,0.136258 -3.84323,4.548333 -6.01097,9.659627 -6.04044,15.070648 l 2.1e-4,0.0099 1.2959,0.0079 -2e-4,-0.0099 c 0.0855,-15.939453 28.84782,-21.41686 59.24641,-21.253444 2.28359,0.01229 -4.9848,5.214963 -5.58101,19.884604 -0.0395,0.286984 -0.0607,0.576188 -0.0635,0.865861 1e-4,0.206012 0.01,0.411914 0.0282,0.617076 -7.5e-4,0.05867 -0.003,0.114499 -0.003,0.173403 0.002,-3.71e-4 0.0185,-9.5e-5 0.0217,3.09e-4 0.38211,3.446103 3.28398,6.060148 6.75114,6.081524 0.0349,-0.0028 0.0697,-0.0059 0.10456,-0.0093 l 41.99019,13.486419 0.005,-0.0121 c 0.77321,0.31954 1.6011,0.48594 2.43772,0.48997 3.56954,0.0146 6.4753,-2.86678 6.49064,-6.43631 0.0135,-3.01271 -2.05596,-5.635297 -4.98924,-6.322677 l 0.002,-0.01001 -38.80495,-12.463384 c 2.68864,-18.376336 17.00036,-29.475692 -8.31873,-29.611887 -23.89218,-0.128142 -44.58823,7.75569 -54.45647,19.305118 z"
         sodipodi:nodetypes="scccccscccccccccccccccs" />
      <circle
         style="vector-effect:non-scaling-stroke;fill:#000000;fill-opacity:0.441237;stroke-width:0.264582;-inkscape-stroke:hairline"
         id="circle11390"
         cx="192.45323"
         cy="90.315201"
         r="3" />
      <circle
         style="vector-effect:non-scaling-stroke;fill:#000000;fill-opacity:0.441237;stroke-width:0.264582;-inkscape-stroke:hairline"
         id="circle11392"
         cx="236.91196"
         cy="104.49933"
         r="3" />
      <circle
         style="vector-effect:non-scaling-stroke;fill:#000000;fill-opacity:0.441237;stroke-width:0.264582;-inkscape-stroke:hairline"
         id="circle11394"
         cx="199.05862"
         cy="64.961517"
         r="3" />
    </g>
    <g
       id="g11414"
       style="display:inline"
       transform="translate(-27.273546,-5.8588815)">
      <path
         id="path11408"
         style="display:inline;vector-effect:non-scaling-stroke;fill:#ff0000;fill-opacity:0.599129;stroke:none;stroke-width:1.21509;stroke-dasharray:none;stroke-opacity:1;-inkscape-stroke:hairline"
         d="m 666.8913,96.754374 v 0.01124 c -0.0425,-0.0043 -0.0852,-0.0074 -0.12791,-0.0093 -1.14139,0.0018 -2.10063,0.857889 -2.23164,1.991738 -0.004,1.493448 -0.0112,2.761438 -0.0112,4.576848 0,4.84606 1.63054,6.70424 6.23062,6.70424 27.2601,0 98.1194,0.0352 103.28478,0 5.30101,0 8.64198,-0.65267 12.56358,-0.65267 7.05959,-4.1e-4 12.78297,5.7226 12.78255,12.78217 -0.003,3.98998 -1.86968,7.74958 -5.04581,10.16449 6.41609,0.77848 11.24139,6.22406 11.24195,12.68721 -0.002,3.83198 -1.72305,7.46096 -4.68925,9.887 6.0801,1.10343 10.49998,6.39847 10.49897,12.57791 -10e-4,3.49068 -1.43099,6.82873 -3.95596,9.23897 6.37765,0.81866 11.15416,6.24792 11.15397,12.67791 -4.5e-4,3.9011 -1.78239,7.58838 -4.83885,10.01257 0,0 0.004,0.25359 0.0926,0.32052 5.87033,4.42407 22.05214,0.0477 22.05214,0.0477 L 806.3355,96.754374 Z"
         sodipodi:nodetypes="ccccsscccccccccccccc" />
      <circle
         style="vector-effect:non-scaling-stroke;fill:#000000;fill-opacity:0.441237;stroke-width:0.264582;-inkscape-stroke:hairline"
         id="circle11410"
         cx="773.25842"
         cy="103.30772"
         r="3" />
      <circle
         style="vector-effect:non-scaling-stroke;fill:#000000;fill-opacity:0.441237;stroke-width:0.264582;-inkscape-stroke:hairline"
         id="circle11412"
         cx="670.36157"
         cy="103.07334"
         r="3" />
    </g>
  </g>
</svg>
