<?xml version="1.0" encoding="UTF-8" standalone="no"?>
<!-- Created with Inkscape (http://www.inkscape.org/) -->

<svg
   width="1000mm"
   height="300mm"
   viewBox="0 0 1000 300"
   version="1.1"
   id="svg5"
   sodipodi:docname="litter-picker-layout.svg"
   inkscape:version="1.2.2 (732a01da63, 2022-12-09)"
   xmlns:inkscape="http://www.inkscape.org/namespaces/inkscape"
   xmlns:sodipodi="http://sodipodi.sourceforge.net/DTD/sodipodi-0.dtd"
   xmlns="http://www.w3.org/2000/svg"
   xmlns:svg="http://www.w3.org/2000/svg">
  <sodipodi:namedview
     id="namedview4977"
     pagecolor="#ffffff"
     bordercolor="#000000"
     borderopacity="0.25"
     inkscape:showpageshadow="2"
     inkscape:pageopacity="0.0"
     inkscape:pagecheckerboard="0"
     inkscape:deskcolor="#d1d1d1"
     inkscape:document-units="mm"
     showgrid="false"
     inkscape:zoom="0.39925625"
     inkscape:cx="1753.26"
     inkscape:cy="566.0525"
     inkscape:window-width="2560"
     inkscape:window-height="1334"
     inkscape:window-x="-11"
     inkscape:window-y="316"
     inkscape:window-maximized="1"
     inkscape:current-layer="svg5" />
  <defs
     id="defs2" />
  <g
     id="layer1"
     transform="translate(-3.3134526,64.943671)">
    <path
       id="rect288"
       style="display:inline;fill:#008080;fill-opacity:0.599129;stroke-width:6.12331;stroke-dasharray:24.4933, 24.4933"
       d="m 176.23782,57.509151 c -3.01684,-0.01128 -6.03382,2.90442 -6.03382,5.662704 0,2.519119 -2.88871,4.410066 -5,4.410066 H 88.580123 c -2.330072,0 -5.183601,1.937106 -6.442501,3.657658 -1.277797,1.746356 -1.658687,3.484165 -1.838647,6.525183 1.224201,4.568784 13.712961,28.750698 7.616589,28.750698 -40.523932,0 -78.8263666,-7.507522 -78.8416993,-28.750698 H 7.3458049 c 0.0098,25.648038 36.0787441,46.438298 80.5697591,46.439028 4.922145,3e-5 22.938136,-2.04152 22.938136,-38.914422 0,0 501.37157,3.240112 519.23652,3.240112 12.86229,0 2.30917,22.65552 14.64097,22.65552 11.97297,0 116.64986,0.0475 128.44436,0 4.45161,-0.0178 6.94358,-5.76243 6.82025,-8.00008 l -95.0718,8e-5 c -7.09364,1e-5 -8.71773,-2.41828 -8.71773,-9.08015 0,-3.352559 0.0579,-6.548733 0.0579,-8.81485 l 225.66684,-1.16e-4 c 0,0 25.79515,89.559416 38.31394,134.201626 2.38393,8.5013 11.14555,13.42715 19.64687,11.04326 l 23.0172,-6.45491 c 8.50133,-2.38391 13.42766,-11.14918 11.04377,-19.65048 0,0 -65.06901,-95.39408 -35.1431,-125.319997 4.60065,-4.600653 -8.56463,-11.799249 -15.66984,-11.638049 v -5.17e-4 c -0.51559,0.0122 -1.03329,0.04807 -1.5534,0.111104 H 187.272 c -2.49473,0 -5,-1.893973 -5,-4.410066 0,-2.777188 -3.01733,-5.651428 -6.03418,-5.662704 z m -0.0661,3.177584 c 1.43602,8.8e-5 2.60004,1.16434 2.59984,2.600358 -9e-5,1.435816 -1.16402,2.599753 -2.59984,2.599841 -1.43602,1.99e-4 -2.60027,-1.163822 -2.60036,-2.599841 -2e-4,-1.436221 1.16414,-2.600557 2.60036,-2.600358 z M 89.440535,73.885929 c 1.435816,8.7e-5 2.599755,1.164026 2.599842,2.599842 -8.8e-5,1.435815 -1.164026,2.599754 -2.599842,2.599841 -1.436016,1.98e-4 -2.60027,-1.163825 -2.600358,-2.599841 8.7e-5,-1.436017 1.164342,-2.60004 2.600358,-2.599842 z m 574.283295,0.109554 c 1.43582,8.9e-5 2.59975,1.164027 2.59984,2.599842 2e-4,1.436016 -1.16382,2.60027 -2.59984,2.600358 -1.43602,-8.8e-5 -2.60004,-1.164342 -2.59984,-2.600358 9e-5,-1.435815 1.16402,-2.599753 2.59984,-2.599842 z m 116.64766,0 c 1.43582,8.9e-5 2.59975,1.164027 2.59984,2.599842 2e-4,1.436016 -1.16382,2.60027 -2.59984,2.600358 -1.43622,1.99e-4 -2.60056,-1.164139 -2.60036,-2.600358 9e-5,-1.436018 1.16434,-2.600041 2.60036,-2.599842 z" />
  </g>
  <g
     id="layer3"
     style="display:inline"
     transform="translate(-3.3134526,64.943671)">
    <path
       id="path18345"
       style="display:inline;vector-effect:non-scaling-stroke;fill:#00ff00;fill-opacity:0.599129;stroke:none;stroke-width:1.62012;stroke-dasharray:none;stroke-opacity:1;-inkscape-stroke:hairline"
       d="m 901.464,85.593225 c 0,0 -183.05667,0.02481 -189.06804,0.02481 0,3.402182 -0.0186,5.033683 -0.0186,8.442895 0,6.46142 2.17406,8.93899 8.30751,8.93899 36.34683,0 130.82585,0.0469 137.71304,0 7.06801,0 11.52262,-0.87023 16.75143,-0.87023 9.41279,-5.4e-4 17.04395,7.63012 17.0434,17.04289 -0.004,5.31998 -2.4929,10.33276 -6.72775,13.55265 8.55479,1.03797 14.98852,8.29874 14.98926,16.91628 -0.002,5.1093 -2.2974,9.94795 -6.25233,13.18267 8.10681,1.47124 13.99997,8.53128 13.99863,16.77054 -0.002,4.65424 -1.90798,9.10498 -5.27461,12.31863 8.50354,1.09154 14.87221,8.33055 14.87196,16.90388 -6.1e-4,5.20148 -2.37652,10.11784 -6.4518,13.35009 0,0 0.005,0.33812 0.1235,0.42736 7.82712,5.89876 29.40286,0.0636 29.40286,0.0636 z m -153.23251,5.763989 c 1.43582,8.3e-5 2.59976,1.164022 2.59985,2.599842 2e-4,1.436022 -1.16383,2.600275 -2.59985,2.600358 -1.43622,1.93e-4 -2.60055,-1.164141 -2.60035,-2.600358 9e-5,-1.436015 1.16433,-2.600035 2.60035,-2.599842 z m 114.77646,0 c 1.43582,8.8e-5 2.59975,1.164026 2.59984,2.599842 -9e-5,1.435816 -1.16402,2.599753 -2.59984,2.599841 -1.43582,-8.8e-5 -2.59975,-1.164025 -2.59984,-2.599841 9e-5,-1.435816 1.16402,-2.599754 2.59984,-2.599842 z m -144.09508,2.908867 c 1.43582,8.8e-5 2.59975,1.164025 2.59984,2.599841 -9e-5,1.435816 -1.16402,2.599753 -2.59984,2.599841 -1.43602,1.99e-4 -2.60027,-1.163822 -2.60036,-2.599841 9e-5,-1.436019 1.16434,-2.60004 2.60036,-2.599841 z" />
    <path
       id="path18628"
       style="display:inline;fill:#00ff00;fill-opacity:0.599129;stroke-width:6.50908;stroke-dasharray:26.0362, 26.0362"
       d="m 727.95167,176.46472 c -0.0296,0.0737 -0.0588,0.14769 -0.0879,0.22141 -2.91683,7.3843 -3.47697,14.76572 -1.2079,21.61442 l 0.004,0.0124 1.64056,-0.54239 -0.004,-0.0124 c -6.68571,-20.17394 27.31726,-39.35306 65.79169,-52.10312 2.89026,-0.95778 -4.07494,8.71307 1.42433,27.50043 a 9.113213,9.113213 0 0 0 0.28889,1.12095 9.113213,9.113213 0 0 0 0.29863,0.76757 c 0.024,0.0744 0.045,0.14594 0.0692,0.22068 0.003,-0.001 0.0234,-0.008 0.0276,-0.009 a 9.113213,9.113213 0 0 0 11.12127,4.80576 9.113213,9.113213 0 0 0 0.12814,-0.0563 l 58.79752,-0.85873 5.3e-4,-0.0172 a 8.6188699,8.6188699 0 0 0 3.28859,-0.42 8.6188699,8.6188699 0 0 0 5.45681,-10.89791 8.6188699,8.6188699 0 0 0 -8.99813,-5.86138 l -10e-4,-0.0136 -54.33732,0.79357 c -4.43563,-24.36213 8.91465,-44.48473 -23.13088,-33.86526 -30.23937,10.02146 -53.02597,28.80278 -60.57063,47.60007 z m 69.85651,-41.37527 a 2.9934187,2.9934187 0 0 1 3.89762,-1.65197 2.9934187,2.9934187 0 0 1 1.65177,3.8981 2.9934187,2.9934187 0 0 1 -3.8981,1.65177 2.9934187,2.9934187 0 0 1 -1.65129,-3.8979 z m 3.80693,35.43564 a 2.5999999,2.5999999 0 0 1 3.38535,-1.4345 2.5999999,2.5999999 0 0 1 1.4345,3.38535 2.5999999,2.5999999 0 0 1 -3.38554,1.43497 2.5999999,2.5999999 0 0 1 -1.43431,-3.38582 z m 62.96029,-0.89591 a 2.5999999,2.5999999 0 0 1 3.38534,-1.4345 2.5999999,2.5999999 0 0 1 1.4345,3.38535 2.5999999,2.5999999 0 0 1 -3.38554,1.43498 2.5999999,2.5999999 0 0 1 -1.4343,-3.38583 z" />
  </g>
  <path
     id="rect2112"
     style="display:inline;vector-effect:non-scaling-stroke;fill:#00ff00;fill-opacity:0.599129;stroke-width:0.248829;-inkscape-stroke:hairline"
     d="m 697.19808,204.85337 h 10.2556 c 0.4832,0 0.8722,0.45227 0.8722,1.01406 v 41.54544 c 0,0.56179 -0.389,1.01407 -0.8722,1.01407 h -10.2556 c -0.4832,0 -0.8722,-0.45228 -0.8722,-1.01407 v -41.54544 c 0,-0.56179 0.389,-1.01406 0.8722,-1.01406 z" />
  <path
     id="path3103"
     style="display:inline;vector-effect:non-scaling-stroke;fill:#00ff00;fill-opacity:0.599129;stroke-width:0.248829;-inkscape-stroke:hairline"
     d="m 676.24415,204.85337 h 10.2556 c 0.4832,0 0.8722,0.45227 0.8722,1.01406 v 41.54544 c 0,0.56179 -0.389,1.01407 -0.8722,1.01407 h -10.2556 c -0.4832,0 -0.8722,-0.45228 -0.8722,-1.01407 v -41.54544 c 0,-0.56179 0.389,-1.01406 0.8722,-1.01406 z" />
</svg>
